<?xml version="1.0" encoding="utf-8"?>
<?xml-stylesheet type="text/css" href="svg.css" ?>
<!-- Generator: Adobe Illustrator 21.0.0, SVG Export Plug-In . SVG Version: 6.00 Build 0)  -->
<svg version="1.1" xmlns="http://www.w3.org/2000/svg" xmlns:xlink="http://www.w3.org/1999/xlink" x="0px" y="0px"
	 viewBox="0 0 1698 721" style="enable-background:new 0 0 1698 721;" xml:space="preserve">
<style type="text/css">
	
</style>
<g id="programmation" class="animationRight">
    <path class="st0" d="M308.3,156.7H69.7C40.7,156.7,17,133,17,104v0c0-29,23.7-52.7,52.7-52.7h238.6c29,0,52.7,23.7,52.7,52.7v0
        C361,133,337.3,156.7,308.3,156.7z"/>
    <text id="text-programmation" transform="matrix(1 0 0 1 54.7803 110.9824)" class="st1 st2 st3 ">programming</text>
	<g>
		<g>
			<path class="st4" d="M1883-155.4c1.9,0,1.9-3,0-3C1881.1-158.4,1881.1-155.4,1883-155.4L1883-155.4z"/>
		</g>
	</g>
</g>
<g id="arvr" class="animationRight">
	<path class="st5" d="M261.8,314.5H157.7c-27.1,0-49.2-22.2-49.2-49.2v0c0-27.1,22.2-49.2,49.2-49.2h104.1
		c27.1,0,49.2,22.2,49.2,49.2v0C311,292.3,288.8,314.5,261.8,314.5z"/>
	<text transform="matrix(1 0 0 1 138.1738 275.4688)" class="st1 st2 st6">AR / VR </text>
</g>
<g id="gamedesign" class="animationLeft">
	<path class="st7" d="M1627.7,335.7h-205.3c-29.3,0-53.3-24-53.3-53.3v0c0-29.3,24-53.3,53.3-53.3h205.3c29.3,0,53.3,24,53.3,53.3v0
		C1681,311.7,1657,335.7,1627.7,335.7z"/>
	<text transform="matrix(1 0 0 1 1417.3096 291.4004)" class="st1 st2 st8">gamedesign</text>
</g>
<g id="_x33_D" class="animationLeft">
	<path class="st4" d="M1417.5,490L1417.5,490c-28.9,0-52.5-23.6-52.5-52.5v0c0-28.9,23.6-52.5,52.5-52.5l0,0
		c28.9,0,52.5,23.6,52.5,52.5v0C1470,466.4,1446.4,490,1417.5,490z"/>
	<text transform="matrix(1 0 0 1 1396.6973 446.4146)" class="st1 st2 st9">3D</text>
</g>
<g id="gameplay" class="animationLeft">
	<path class="st5" d="M1495.1,182.7h-197.7c-28.3,0-51.4-23.1-51.4-51.4v0c0-28.3,23.1-51.4,51.4-51.4h197.7
		c28.3,0,51.4,23.1,51.4,51.4v0C1546.5,159.6,1523.4,182.7,1495.1,182.7z"/>
	<text transform="matrix(1 0 0 1 1315.7861 142.0317)" class="st1 st2 st10">gameplay</text>
</g>
<g id="personnage">
	<g id="Calque_4">
		<g>
			<g>
				<path class="st11" d="M896,291.9c-9.6,1.3-19.3,2.1-29.1,2.5c-1.9,0.1-1.9,3,0,3c0.9,0,1.9,0,2.8,0c1.9,0,1.9-3,0-3
					c-0.9,0-1.9,0-2.8,0c0,1,0,2,0,3c9.7-0.4,19.4-1.2,29.1-2.5C897.9,294.6,897.9,291.6,896,291.9L896,291.9z"/>
			</g>
		</g>
		<g>
			<g>
				<path class="st11" d="M877.7,281.9c10.2,4.9,1.6,20.4-6.6,22.3c-10.6,2.5-9.9-13.5-5.5-18.9c4.1-5,10.6-1.9,13.3,2.7
					c2.1,3.5,3,8.3,2.9,12.3c-0.2,10.8-12.5,16-19.5,7.2c-1.2-1.5-3.3,0.6-2.1,2.1c9.1,11.4,24.9,3.4,24.7-10.1
					c-0.1-6.4-2.2-14.3-7.9-18c-4.5-2.9-10.3-2.4-13.7,1.9c-5.9,7.5-5.6,25.7,7.5,23.9c11.4-1.5,21.5-21.8,8.5-28
					C877.5,278.5,876,281.1,877.7,281.9L877.7,281.9z"/>
			</g>
		</g>
		<g>
			<g>
				<path class="st11" d="M879.5,289.4c0.3,0.1,0.6,0.2,1,0.3c-1.5-0.9-3.1-1.8-4.6-2.7c-0.5-0.9-0.9-1.8-1.2-2.8
					c0.1-0.8,0-0.6-0.3,0.7c-1,1.5-1.5,4.1-2.3,5.8c-0.7,1.5-3.7,8-4.2,8.1c1.9,0,3.7,0,5.6,0c0.8,0.8,1.6,1.6,2.5,2.3
					c0.1,0,0.1,0,0.1,0.1c-0.2,0.2,0.2-1.8,0-1.4c0.1-0.3,2-4.1,2-3.8c0.2,0.7-3.3-0.7-3.4-0.6c0.2-0.2,2.2,5.6,2.2,5.7
					c0.9,2.9,1.6,6,2,9c0.1,0.8,0.2,5.4,0.5,5.5c0,0,6-3.4,5.6-1.8c0.3-1.4-1.3-5.6-1.5-7c-0.8-5.6-7.9-8.7-12.9-7.3
					c-6,1.7-8.1,7.3-7.3,12.9c1.1,7.8,4,15.5,11.2,19.6c7.5,4.2,17.5,2.8,22.5-4.6c4.6-6.9,3.5-15.1,2.2-22.8
					c-1.2-7-3-14.9-7.1-20.8c-4.6-6.6-12-10.1-20-7.9c-7.6,2.1-13.2,9.2-15.7,16.4c-2.4,6.9-1.8,15.7,2.8,21.5
					c6,7.5,16.4,7,22.9,0.5c6-5.9,10.2-15.8,12.5-23.8c2.6-8.8-0.2-18.3-9.5-21.3C872.2,265,866.6,285.3,879.5,289.4L879.5,289.4z"
					/>
			</g>
		</g>
		<g>
			<g>
				<path class="st11" d="M865.7,297c-0.1,1.1-0.2,2.2-0.2,3.3c-0.3,3.5,0.4-0.5,0.1-0.7c0.5,0.4-1.1,5.7-1.3,6.4
					c-0.6,2.4-1.4,4.7-2.3,7c-0.9,2.7,1.7-3,0.2-0.5c-0.6,0.9-1,1.9-1.5,2.9c-0.5,0.9-1.1,1.9-1.7,2.8c-0.3,0.4-2.4,3.2-0.7,1.2
					c1.7-2.1-0.6,0.6-0.9,0.9c-0.7,0.8-1.5,1.5-2.2,2.2c-0.4,0.4-3.1,2.6-0.9,0.9c2.2-1.7-0.6,0.4-1.1,0.6c-0.9,0.6-1.8,1.1-2.7,1.6
					c-0.5,0.3-0.9,0.5-1.4,0.7c-1.4,0.7-0.9,0.5,1.4-0.5c0.1,0.3-5.5,1.6-6,1.7c-3.5,0.8,0.8-0.5,1-0.1c-0.1-0.1-2.8,0.1-3.1,0.1
					c-3,0.1-0.1-0.3,1.1,0.3c-0.7-0.4-2-0.4-2.7-0.6c-0.6-0.2-2.1-1-2.7-0.8c0.9-0.2,3.8,2,1.2,0.4c-0.8-0.5-1.6-0.9-2.4-1.4
					c-2.9-1.7,0.8,0.8,0.9,0.8c-0.4,0.1-2.3-2.1-2.5-2.4c-0.3-0.3-0.6-0.7-0.9-1c-0.7-0.9-0.6-0.7,0.4,0.5c0.9,1.2,1.1,1.4,0.4,0.4
					c-0.3-0.4-0.5-0.8-0.7-1.2c-0.3-0.6-1.7-3.5-0.4-0.6c1.2,2.8,0.1-0.1-0.1-0.7c-0.3-1.1-0.5-2.3-0.7-3.4
					c-13.5,3.7-27,7.4-40.5,11.2c2.2,13.9,10.2,27.7,21.2,36.4c8.5-11,17-22,25.4-33c2.1,1.6,1.9,1.5,0.1-0.2
					c-0.8-0.7-1.5-1.4-2.2-2.2c-0.8-0.9-2-1.8-2.5-2.9c0.6,1.2,1.9,2.7,0.5,0.5c-1.2-2-2.5-3.9-3.6-6c-0.3-0.6-3.5-5.7-3.1-6.4
					c1,2.3,1.2,2.8,0.6,1.4c-0.2-0.5-0.4-1-0.6-1.5c-0.4-1-0.8-2-1.1-3c-0.8-2.2-1.6-4.5-2.3-6.7c-1.9-5.7-3.6-11.4-5.2-17.1
					c-3-10.9-5.6-21.9-7.7-33c-1-5.6-1.9-11.1-2.7-16.7c-0.5-3.3,0.4,3.3,0,0c-0.2-1.6-0.4-3.1-0.6-4.7c-0.4-3.1-0.7-6.2-0.9-9.4
					c-0.7-7.6-3.6-14.1-10.4-18.1c-7.1-4.1-14.1-3.1-21.2,0c-15.9,6.9-20.2,27.3-15.7,42.5c3.6,12.1,9.7,23.8,14.6,35.4
					c5,12,10.1,24,15.1,36c2.6,6.1,5.2,12.3,7.7,18.4c2.6,6.1,4.7,12.7,8.5,18.2c4.8,6.9,11.2,12,19.5,14c9.4,2.3,19.2-0.6,27.2-5.5
					c10.8-6.5,20-15.1,27.3-25.3c7.1-10,11.6-22.8,11-35.2c-0.5-8.8-2.9-16.8-8.8-23.5c-6.8-7.7-17.9-10.6-27.8-8.3
					c-15.3,3.5-24.8,16.6-32.2,29.5c-7.1,12.4-12.7,25.8-16.8,39.5c13.5,0,27,0,40.5,0c-0.8-3-1.3-6-2-9c-0.2-0.9-0.6-4.1-0.1,0.1
					c-0.2-1.2-0.3-2.4-0.4-3.7c-0.5-6.1-0.6-12.3-0.1-18.4c0,0,0.6-5.9,0.2-2.7c-0.4,3.2,0.5-2.7,0.5-2.7c0.4-2.4,1-4.8,1.6-7.2
					c0.7-2.8,1.6-5.5,2.5-8.2c1-3.1,0.3,0.8-0.4,0.8c-0.1,0,2.2-3.9,2.2-3.9c0.6,1.2-2.8,2.8-0.4,0.8c-0.7,0.5-1.3,1-2,1.5
					c1.6-0.9,1.6-0.9,0-0.2c-0.4,0.2-0.8,0.3-1.2,0.5c2.3-0.6,1.8-0.5-1.5,0.1c-0.7,0-4.8-1.4-1.6-0.1c-2.7-1-5.7-2.5-7.1-5.2
					c-2.1-4-0.5-1.5-0.1,0.1c0.4,1.4,0.6,2.8,0.9,4.1c0.9,4.4,0.1-3.1,0.2,1.8c0,2.5,0.2,5,0.2,7.5c-0.1,1.9-0.2,3.7-0.4,5.6
					c0.1-0.8,0.8-4.1,0,0c-0.4,2.2-1,4.3-1.6,6.4c-0.7,2.7,2.5-4.4,0.2-0.6c-2.1,3.3,3.3-2.6,0.2,0c0.4-0.3,4.2-2.5,1.3-1
					c1.8-0.9,3.7-1.6,5.8-1.6c0.4,0,6.4,2,4.4,1c-2.7-1.5,4.1,3.1,0.2-0.1c-2.6-2.1,0.6,0.7,0.4,0.7c-0.3,0-1.6-2.3-1.9-2.8
					c-0.8-1.2-1.5-2.4-2.1-3.6c-0.3-0.5-2.8-5.4-1.5-2.8c1.4,2.9-0.7-2-0.8-2.2c-0.4-1.1-0.7-2.1-1-3.2c-0.3-1.1-0.6-2.2-0.8-3.3
					c-0.1-0.3-1.3-5.7-0.5-2c0.8,3.6-0.8-4.1,0-4.7c-0.1,0.9-0.2,1.8-0.3,2.6c0.5-1.8,0.5-1.9-0.2-0.3c-0.8,1.6-0.7,1.5,0.1-0.1
					c-0.6,1.2-1.5,2.1-2.6,2.7c-0.4,0.3-0.7,0.5-1.1,0.8c2-1.1,1.5-1-1.5,0.4c1.3-0.5,3.7-0.3-1.7,0.1c3.4-0.3-1-0.2-1.6-0.4
					c4.3,0.8-3.2-1.7-0.7-0.4c1.6,0.9-3-2.9-3.3-3.4c0.8,1.1,1.4,3.5-0.5-1.4c1.2,3.2-0.1-1-0.1-1.7c0.3,4.1,1.5-3.9,0.1-0.3
					c0.4-0.8,0.8-1.7,1.2-2.5c-0.9,1.5-0.9,1.5,0.2,0.1c0.3-0.4,0.6-0.7,0.8-1.1c-1.6,1.5-1.2,1.3,1.2-0.7c-2.6,1.8,0.9-1.3,1.4-0.4
					c0.2,0.3-2.4,0.4-2.6,0.6c1-0.2,2-0.3,2.9-0.5c-1.8-0.1-1.8,0,0.1,0.2c0.5,0.1,1,0.1,1.5,0.2c-2.2-0.6-1.8-0.3,1.2,0.9
					c0-0.1-2.4-1.2-2.2-1.3c2.6,2.1,3.1,2.4,1.6,0.9c0.6,0.8,1.2,1.6,1.8,2.4c0,0-1.8-4.7-0.6-0.6c1,3.6,0.1-0.2-0.1-0.8
					c-0.8-2.2,1.2-1.2,0.1,2c0.2-0.5-0.1-1.8-0.1-2.5c0-0.7,0.4-4.7-0.1-0.9c-0.5,3.8,0.2-0.3,0.3-0.9c0.1-0.4,0.8-2.3,0.8-2.4
					c-1.3,2.8-1.6,3.6-0.9,2.1c0.3-0.6,0.6-1.1,0.9-1.7c0-0.1,1.4-1.8,1.4-2.1c-0.6,0.8-1.2,1.5-1.7,2.3c0.5-0.6,1-1.2,1.6-1.7
					c0.8-0.8,1.8-2.1,2.9-2.6c-0.5,0.2-3.8,2.5-0.5,0.6c2-1.2,4-2.4,6.1-3.4c1.6-0.8,3.3-2.7,0-0.1c1.1-0.8,3.2-1.2,4.5-1.6
					c4.5-1.5,9.1-2.8,13.7-4c0.4-0.1,2.5-0.8,3.1-0.7c-0.8,0.1-1.7,0.2-2.5,0.4c2,0,2,0,0.2-0.2c-2.1-0.9-3.9-0.9-5.7-2.6
					c-1.1-1-2.9-6.6-2.1-3.1c0.4,1.9,0.9,3.8,1.3,5.6c1.2,5.3,0-3,0.1,0.4c0,0.8,0.7,3.7,0.2,4.3c0.1-0.4,0.1-0.7,0.2-1.1
					c0.3-1.7,0.3-1.5-0.2,0.6c2.6-5,1-1.9,0.4-1.1c0.3-0.4,4.9-4.1,3.1-3.1c-2.6,1.5-0.6,1,6.1-1.5c1.4,0,2.7,0.3,3.8,0.9
					c1.2,0.5,4.3,3.8,1.9,1c-2-2.2-0.6,0.6,0.4,0.7c-0.2,0-1.2-1.9-1.4-2.3c-0.2-0.4-0.4-0.8-0.6-1.2c-1-2-0.8-1.6,0.5,1.3
					c-0.2,0.1-1.1-5.1-1.4-5.2c1.5,0.8,0.1,4.9,0.3,1c0.2-4.8-1.1,2.1-0.3,0.4c0.2-0.3,0.9-2.9,0.8-3.1c0.3,0.5-2.5,4.5-0.5,1.6
					c-2.8,4.1-1.9,2.3-0.9,1.3c3.1-3.1-2.8,1.9-0.3,0.3c2.5-1.5-4.8,1.3-0.3,0.2c2.5-0.6,0.9,0.6-1.2,0c1.9,0.6,6.1-1.4,7.7,0
					c-0.8-0.1-1.7-0.3-2.5-0.4c0.8,0.1,1.5,0.2,2.3,0.4c1.3,0.2,2.5,0.5,3.8,0.8c0.4,0.1,3,0.8,3,0.9c-0.3,0.9-3.5-2.3-0.7-0.3
					c4.1,2.9-2.4-2.2,0-0.1c1.5,1.3-2.8-3.3-2.5-4.6c0,0,0.5,2.1,0.6,2.3c-0.4-3.6-0.6-4.3-0.5-2c0.2-1.1,0.3-2.1,0.5-3.2
					c-0.1,0.1-2.3,4.2,0,1c2.1-2.8-0.2,0.1-0.6,0.8c-1.3,2.6-0.5-1.5,1-1.3c0.2,0-1.7,1.5-1.8,1.7c0.8-0.6,1.5-1.2,2.3-1.8
					c-1.5,0.8-1.4,0.8,0.2,0.1c3.9-1-1.5,0.1-1.5,0.2c0.2,0.5,5.3-1.3,1.3-0.3c-1.9-0.1-1.9-0.1-0.1,0.2c1.8,0.3,1.8,0.3-0.1-0.1
					c-0.9-0.3-1.9-0.6-2.8-0.8c-4.1-1,2.9,2-0.4-0.3c-0.3-0.2-4.5-2.4-1.6-0.8c2.6,1.4-1.1-1.1-1.8-1.8c-0.2-0.2-0.4-0.4-0.5-0.6
					c-1.5-1.7-1.4-1.5,0.4,0.6c-0.6-0.3-2.5-3.6-2.4-4c0,0,1.5,4.9,0.3,0.8c-0.3-1.1-1.4-3.3-1.1-4.4c-1,3.8,0.6,2.7,0.4,0.3
					c0.1-1.6,0-1-0.3,1.8c0.1-0.7,0.3-1.4,0.6-2.1c0.6-2.9-2.1,4.8-0.1,0.8c1.7-3.6-2.7,3.3,0.1,0.1c2.1-2.5-0.4,1.6-1.1,0.8
					c0.6-0.4,1.1-0.7,1.7-1c1.4-0.7,0.8-0.4-2,0.8c3.5-1.2-1.4,0.3-1.8,0c0.9-0.1,1.7-0.1,2.6,0c-1-0.1-2-0.2-3-0.3
					c4.3,0.8-3.3-1.5-0.8-0.4c0.6,0.3,1.1,0.7,1.6,1c-2.3-1.9-2.9-2.3-1.8-1.2c0.4,0.8,1.7,1.8,2.3,2.4c2.8,2.9-2.4-3.6,0,0.1
					c3.4,5.1,7,10.2,11,14.8c2,2.2,4.3,4.2,6.5,6.2c0.8,0.7,1.7,1.5,2.4,2.2c0.8,0.7,4.1,4.9,0.8,0.6c2,2.7,0.2,0-0.1-0.9
					c1.3,3.5-0.1-2.5,0.2-3.9c1-4.4,3.8-7.2,7.6-8.7c1.5-0.7,3.2-1,4.9-0.9c7.5,3,9.7,3.5,6.6,1.5c3.2,4.2,6.4,8.4,9.7,12.6
					c-0.2-0.5-0.3-0.9-0.5-1.4c-0.6-2.3-0.6-1.9,0,1.3c-0.1,0,0-3.1,0.1-2.9c1.8,5.3-1.8,1.3,0.6-0.2c0.1-0.1-2.6,4.5-0.2,0.9
					c0.1-0.2,2.8-4.5,0.9-1.7c-1.8,2.7,1.1-1.1,1.4-1.4c-0.3,0.3,2-1.9,2-1.9c-2.6,2-3,2.3-1.1,1.1c0.7-0.4,1.5-0.9,2.3-1.2
					c0,0.4-5,1.6-1.4,0.6c0.9-0.2,2.2-0.4,3.1-0.8c2.2-1.1-5.2-0.1-1.3,0.2c0.4,0,1.9,0.2,2.4,0.1c-1.1-0.1-2.2-0.2-3.3-0.4
					c2.1,0.6,1.5,0.3-1.8-1c2.9,1.6-1.2-1.1-1.5-1.3c0.3,0.3,0.5,0.6,0.8,0.8c-1.4-1.3-2.4-2.9-2.8-4.8c1.3,3.9,0-4.6-0.1-0.2
					c0.1-0.9,0.2-1.9,0.3-2.8c-0.6,1.7-0.5,1.8,0.1,0.2c0.4-3.4,0.3,1.2-0.9,1.3c-0.1,0,3-3,0.6-0.8c-3.8,3.3,3.8-2.7-0.2,0.4
					c-7.3,5.8-13.1,10.6-16.2,19.8c-5.8,16.9,5.4,32.1,17.5,42.4c1.8,1.6,3.5,3.3,5.2,5c2.1,2-2.6-4.2-0.1-0.2
					c0.5,0.8,1,1.7,1.5,2.5c0.2,0.4,0.5,0.9,0.7,1.3c1,2.1,0.9,1.8-0.4-0.9c-0.1,0.2,0.8,2.4,0.9,2.8c0.2,0.7,1.3,3.7,1,4.3
					c-0.1-0.9-0.3-1.8-0.4-2.6c0.1,1,0.1,2,0.1,3c0,1.2-0.1,2.5-0.2,3.7c-0.1,3,1.3-5.1-0.1-0.5c-0.3,0.9-0.6,1.9-0.8,2.8
					c-1,4.5,2.3-3.7-0.1,0.2c-0.5,0.8-0.9,1.7-1.4,2.5c-0.3,0.4-0.5,0.8-0.8,1.2c-1.3,1.8-1.1,1.6,0.7-0.8c0.1,0.7-4.3,4.9-5.1,5
					c0.7-0.5,1.3-1,2-1.6c-0.8,0.5-1.6,1.1-2.4,1.6c-0.8,0.5-1.7,0.9-2.5,1.4c-4.1,2.3,4.3-1-0.3,0c-0.9,0.2-1.9,0.5-2.7,0.8
					c-4.4,1.3,3.4,0.3,0.8,0c-1-0.1-2.3,0-3.3,0.1c-3.6,0.2,1.2-0.1,1.6,0.4c-0.6-0.6-4.2-1-5.1-1.3c-3-0.8,1.3-0.5,1.3,0.6
					c0-0.2-2.5-1.4-2.9-1.6c-3.5-1.8,0.8-0.9,0.6,0.6c0,0-1.6-1.5-1.8-1.7c-3.1-2.6,1.8,4,0.2,0.3c-1.5-3.4,0.5,1.6,0.5,1.7
					c0-0.2-0.9-3.5-1-3.6c0.2,1,0.3,2,0.5,3c0.1-2.5,0-2.3-0.3,0.4c-0.2-0.6,0.6-2.7,0.8-3.4c0.3-1.1,0.7-2.2,1.2-3.3
					c-1,2.2-1,2.4-0.2,0.4c1.1-2.2,2.3-4.4,3.5-6.6c0.3-0.4,0.5-0.8,0.8-1.2c-1.8,2.3-2,2.6-0.5,0.8c1.4-1.3,1.4-1.4,0-0.3
					c-1.4,1-1.3,1,0.2-0.1c3.8-2.3-3.5,1.3-0.8,0.4c1.6-0.4,0.8-0.3-2.3,0.3c2.3,0.1,1.7-0.1-1.7-0.4c1.7,0.3,2.5,1.6-1.5-0.7
					c-1.7-1-3-2.4-4-4.1c-0.8-2.2-1-2.6-0.7-1.1c1,2.8-0.1-5-0.1,0.5c0,1.9,0.1,3.8,0.1,5.7c0,1.6-0.1,3.1-0.2,4.7
					c-0.1,1-1.1,7.5-0.2,2.9c-0.7,3.7-1.5,7.4-2.6,11c11.7-3.1,23.4-6.2,35.1-9.3c-0.3-0.3-1.7-2-2-2c1.1,0,2.2,3.4,0.4,0.3
					c-0.3-0.5-1.8-3.5-0.5-0.7c1.4,3-0.1-1.1-0.3-1.5c-0.9-3.1,0.6,0.7,0.1,1.4c0.1-0.2,0.1-2.7,0-2.8c0.6,0.8-1.1,4.9,0,0.7
					c0.3-1.1,0.7-2.2,1.1-3.3c-11.7,3.1-23.4,6.2-35.1,9.3c1.5,1.6,1.2,1.1-0.9-1.4c1.1,1.9,0.9,1.4-0.5-1.7
					c0.3,0.8,0.5,1.6,0.7,2.4c-0.4-3.5-0.5-4.1-0.4-1.8c-0.1,2.3,0,1.7,0.3-1.8c-0.6,2.1-0.3,1.6,0.9-1.5c-0.4,0.8-0.8,1.5-1.2,2.2
					c2-2.4,2.4-3,1.3-1.9c-1.2,1.1-0.6,0.6,1.8-1.4c-2,1-1.4,0.8,1.6-0.6c-2.2,0.5-1.6,0.5,1.9-0.1c-0.8,0.1-1.7,0.1-2.5,0
					c3.5,0.6,4.1,0.6,1.9,0.1c-2.1-0.7-1.6-0.5,1.5,0.7c-1.9-1.2-1.5-0.8,1.2,1.2c-1.5-1.6-1.3-1.1,0.8,1.4
					c-6.5-8.8-18.5-14.1-28.7-7.5c-8.7,5.6-14.5,19.3-7.5,28.7c6.1,8.3,13.6,14.5,24,16.4c11.8,2.2,23.8-0.3,32.8-8.5
					c15.6-14.2,15.6-39.9,0.7-54.6c-5.3-5.3-13.2-7.4-20.4-5.4c-7.7,2.1-11.9,7.6-14.7,14.7c-6.5,16.3-1,37.1,12,48.7
					c11.7,10.5,30.6,6.5,35.1-9.3c2.3-7.8,3.6-16,4.2-24.1c0.6-8.2,0.8-17.7-2-25.5c-7.1-19.9-29.1-26.8-47.6-18.3
					c-13.7,6.4-21.5,21.1-26.1,34.8c-5.3,15.6-1.8,32.2,9.5,44.1c20.8,21.8,55.4,18.4,76.2-1.2c22.9-21.6,22.9-58,2.7-81.2
					c-3.5-4-7.8-7.8-12-11c-3.8-2.9,1.5,3.2-0.7-0.7c-2-3.4,0.5,2.2,0.5,3.4c0-4.9-1.6,4.7-1.7,4.9c-2,2.3-2.2,2.6-0.7,1
					c1.7-1.4,1.4-1.2-0.9,0.6c2.1-2.8,6.1-4.3,8.7-6.9c2.9-3,5.5-6.5,7.5-10.2c4.3-8.2,6.2-17.9,3.8-27
					c-4.3-16.1-19.4-26.4-35.9-25.5c-15.9,0.9-29.1,9.3-38.4,21.9c-10.5,14.4-14,41.3,3.9,51.8c18.9,11,43.2-4.9,42.9-26.2
					c-0.1-9.3-3.9-17.4-9.7-24.5c-1.1-1.4-14.1-12.2-13.5-13.6c0.5,0.7,1.1,1.4,1.6,2.1c-0.5-0.7-1.1-1.5-1.6-2.3
					c-0.5-0.8-1-1.5-1.6-2.3c-2.3-3.4-4.7-6.7-7.3-9.8c-4.9-5.9-11.1-10.2-18.3-12.9c-14.5-5.3-31.6,0.3-41.6,11.7
					c-11.8,13.6-13.2,31.5-6.4,47.8c12,28.4,54,45.4,77.1,19.1c10.6-12.1,14.2-30.2,5.9-44.6c-8.6-14.8-26.3-19.6-42.3-20.5
					c-16-0.9-32.4,6-40.4,20.3c-7.8,14-5.9,30.7,0.8,44.7c8.2,16.9,29.3,28.8,47.1,18.3c7.6-4.4,13.2-11.5,15.9-19.9
					c3-9.2,1.8-18.5,0.1-27.8c-3.2-17.8-16.7-31.9-35.7-30.4c-13.6,1.1-28.6,6.2-40.6,12.6c-12.8,6.8-23,17.8-27.3,31.8
					c-4.3,13.6-2.1,29,6.7,40.3c11.1,14.3,30.9,18.1,47,10.2c15.6-7.7,22.6-26,18.3-42.4c-4.8-18.2-24.6-28.8-42.5-24.3
					c-17.5,4.4-27.6,21.6-26.5,39.1c0.9,14.5,6,29.3,14.4,41.2c5.4,7.7,12.1,14.6,21.4,17.6c9.1,2.9,18.7,1.6,26.7-3.5
					c14.6-9.3,18.8-27.5,19.6-43.7c0.8-16.6-1.9-37.7-17.3-47.3c-17-10.5-38-2.1-48.2,13.4c-8.2,12.4-10.8,28.7-12.2,43.2
					c-1.4,14.6,0.2,29.7,3.9,43.8c5.3,20.4,34.8,19.6,40.5,0c1.1-3.9,2.4-7.8,3.8-11.6c0.4-1.1,0.8-2.2,1.3-3.3
					c0.1-0.3,1.3-3,0.3-0.7c-1,2.3,0.2-0.4,0.3-0.7c0.6-1.3,1.2-2.6,1.9-4c1.8-3.7,3.7-7.3,5.8-10.8c1-1.8,2.1-3.5,3.2-5.2
					c0.5-0.7,1-1.4,1.4-2.2c1.4-2.5-2.9,2.9-0.1,0.2c0.5-0.5,1.1-1,1.6-1.6c1.7-2.1-3.2,1.8-0.9,0.5c0.3-0.1,1.7-0.9,1.8-1.1
					c-0.3,0.6-4.7,1.2-1.3,0.8c-6,0.8-11.4-0.3-15-5.6c-1.9-2.7-1.1-2.5-0.7-0.7c-0.3-1.4-0.2-3.8-0.4-1.1c0-0.2,0,2.9-0.1,2.9
					c-0.2,0.1,1.2-5.4,0.1-1.3c-0.4,1.4-0.8,2.8-1.2,4.2c-1.1,3.8,0.1-0.8,0.5-1c-0.3,0.1-0.9,1.7-1,2c-0.9,1.8-2.1,3.4-3.1,5.1
					c-1.5,2.4,2.5-2.7,0.5-0.7c-0.5,0.6-1,1.2-1.5,1.7c-1.2,1.3-2.5,2.6-3.8,3.8c-0.1,0.1-4,3.6-4.1,3.5c-0.1-0.1,4.2-2.9,0.6-0.5
					c-0.8,0.6-1.7,1.2-2.5,1.7c-0.9,0.6-1.8,1.1-2.6,1.6c-0.4,0.2-2.8,1.7-0.4,0.4c2.2-1.2,0.3,0-0.4,0.1c1.8-0.2,3.3-0.4,5.1,0
					c1.3,0.3,2.5,0.9,3.6,1.7c0.7,0.5,3.2,4.3,2.3,2.2c-0.3-0.6-0.7-1.3-1.1-1.9c-0.1-0.1-2.2-4.1-0.9-1.7c1.3,2.2-0.2-0.5-0.4-0.9
					c-0.5-1.2-1-2.5-1.5-3.7c-0.9-2.2-1.8-4.3-2.7-6.5c-1.9-4.6-3.9-9.2-5.8-13.8c-3.6-8.6-7.2-17.2-10.8-25.8
					c-4.3-10.1-8.5-20.3-12.8-30.4c-1-2.4-2-4.7-3-7.1c-0.3-0.9-0.7-1.7-1-2.6c-0.2-0.5-1.7-5.3-1-2.5c0.6,2.3-0.1-0.1,0-0.8
					c-0.6,3.1-0.7,3.9-0.3,2.3c0.3-1.1,0.2-0.9-0.4,0.6c-1.4,2.7-0.2,0.6,0.1,0.1c-0.6,1.3-1.5,2.3-2.7,3.1
					c-1.5,1.1-1.4,1.2,0.1,0.4c-10.5-6-21.1-12.1-31.6-18.1c2.4,26.6,7,52.9,14.4,78.6c3.5,12.1,7.5,24.1,12.9,35.5
					c5.8,12.2,14.2,22,25,30c8.3,6.3,21.3,2,27.1-5.4c5.8-7.5,6.6-21.1-1.6-27.6c-1.8-1.4-3.5-2.9-5.1-4.6c-0.5-0.6-1-1.1-1.5-1.7
					c0.5,0.6,0.9,1.2,1.4,1.8c-0.9-0.5-1.6-2.4-2.1-3.2c-0.5-0.9-0.9-1.8-1.4-2.7c-1.3-2.1,1.1,3.8,0.1,0.1
					c-0.7-2.5-1.4-4.9-1.8-7.4c-1.7-10.9-15.9-17.9-25.8-14.7c-11.9,3.9-16.4,14.1-14.7,25.8c4.5,30.4,40.1,47,67.6,37.9
					c30.5-10.2,45.7-39.2,47.6-69.7c0.7-11-10.1-21.5-21-21C874.7,276.5,866.4,285.2,865.7,297L865.7,297z"/>
			</g>
		</g>
		<g>
			<g>
				<path class="st7" d="M997,455.7c-1.4,1.6-2.8,3.1-4.3,4.5c-0.7,0.7-3.2,2.1-3.5,3.1c3.1-2.4,3.6-2.8,1.4-1.2
					c-0.9,0.6-1.7,1.2-2.6,1.7c-1.6,1-3.1,1.8-4.8,2.6c-5.7,2.8,4.4-1.3-0.3,0.2c-1.7,0.5-3.4,1.2-5.2,1.6c-1.3,0.4-4.3,0.4-5.3,1.2
					c4.2-0.5,4.9-0.6,2.1-0.3c-1,0.1-2.1,0.2-3.1,0.2c7.3,12.8,14.7,25.6,22,38.4c2.1-2.8-0.2,0.8-1.1,1.4c0.8-0.5,1.4-1.7,2.1-2.4
					c1.4-1.6,2.9-3,4.5-4.5c1.5-1.4,3.4-2.6,4.8-4.1c-0.8,0.9-4.1,3-1.4,1.1c1.1-0.8,2.2-1.5,3.3-2.3c3.5-2.4,7.2-4.7,10.9-6.8
					c1.8-1.1,3.7-2.1,5.6-3.2c0.9-0.5,2-1,2.8-1.6c2.2-1.6-5.8,1.5-1.7,0.8c-4.5,0-9,0-13.6,0c-2.8-1.7-5.6-3.4-8.5-5.2
					c-2.2-3.8-4.4-7.5-6.6-11.3c-1.5-3.7-0.4-10.2,1.6-13.5c3-5.2,3-3.6,1.1-1.8c-2.3,2.1-4.8,4.1-7.2,6.1c-1.3,1.1-2.6,3.1,1.1-0.8
					c-1.1,1.2-2.8,2.1-4.1,3.1c-2.8,2-5.6,3.9-8.5,5.8c-4.8,3.1-9.7,6-14.7,8.7c-2.5,1.3-5.1,2.6-7.6,3.9c-1.5,0.7-3.1,1.5-4.7,2.2
					c-0.8,0.4-1.6,0.7-2.3,1c-1.8,0.8-1,0.5,2.1-0.9c-1.5,1.7-5.8,2-7.9,3c7.5-3.6,33.3,17.4,23,28.7c0.5-0.5,3-4.5,0.1-0.6
					c-3.1,4.1,0.7-0.5,1.2-1c1-1.1,2.1-2.2,3.1-3.3c2.5-2.6,5-5.1,7.6-7.6c4.5-4.4,9.2-8.6,14-12.7c2.3-1.9,4.6-3.8,6.9-5.7
					c0.3-0.2,5-3.8,1.7-1.3c-3.2,2.4,2.6-1.9,3.2-2.3c0.6-0.4,6.9-4.2,7-4.8c-1.1,0.4-2.2,0.9-3.3,1.3c-9.4,1.7-16.9-3-22.6-13.9
					c-0.6-3.9-0.7-9.4,1.3-12.9c3-5.2,1.6-2.2-0.3-0.6c-0.5,0.4-1.9,1.8-2.6,2.1c0.8-0.6,1.6-1.2,2.4-1.8c-0.9,0.7-1.9,1.4-2.8,2.1
					c-1.4,1-2.8,2.1-4.3,3.1c-10.5,7.4-21.5,14-33.1,19.6c-2.6,1.3-5.3,2.5-7.9,3.7c-5.3,2.5,4-1.6,0.5-0.2
					c-1.4,0.6-2.8,1.1-4.2,1.7c-6.3,2.4-12.7,4.3-19.4,5.7c-6.1,1.3,5.8-0.3-0.5,0.1c-0.9,0-2.1,0-3.1,0.1c-4.7,0.6,6.2,1.6,1.7,0.2
					c1.3,0.5,2.6,1.1,3.9,1.6c7.9,4.8,10.6,11,8.2,18.7c-0.2,2.3-0.5,4.7-0.7,7c-2.4,3-2.7,3.5-0.8,1.6c1.2-0.8,2.2-1.9,3.3-2.8
					c1.2-1,2.4-1.9,3.6-2.9c4-3.3-3.9,2.9,1.4-1.1c11.7-8.8,24-16.9,36.7-24.2c3.2-1.8,6.4-3.6,9.6-5.3c1.3-0.7,2.6-1.3,3.9-2
					c1-0.5,2.1-1,3.2-1.5c-3.1,1.3-3.8,1.6-2,0.9c1.4-0.4,2.7-1,4.1-1.4c1.1-0.3,2.2-0.6,3.3-0.9c2.2-0.4,2.2-0.4-0.1-0.1
					c-0.6,0.1-1.2,0.2-1.7,0.2c1.1-0.1,2.2-0.1,3.3-0.1c2.8,0.2,2.2,0.1-1.9-0.3c2.6,0.8,2.1,0.5-1.4-0.9c-1.7-13.3-3.4-26.7-5.2-40
					c-2.2,2.6-4.6,4.9-7.1,7.2c-4.3,3.9,4.7-3-0.3,0.1c-1,0.6-1.9,1.3-2.8,1.9c-6.1,4-12.4,7.5-18.8,10.9c-6,3.2-12.1,6-18.3,8.9
					c-5.8,2.7,5.2-2-0.7,0.3c-1.7,0.7-3.4,1.4-5.1,2.1c-3.4,1.3-6.9,2.6-10.4,3.8c-2.9,1-5.9,2-8.9,2.7c-0.6,0.1-1.2,0.3-1.8,0.4
					c-2.9,0.5-2.4,0.5,1.3-0.1c-0.3,0.3-5.5,0.1-5.5,0.1c1.2,0.2,2.4,0.3,3.5,0.5c-0.9-0.2-1.9-0.4-2.8-0.7c0.6-0.3,5.6,3.2,2.1,0.9
					c-1.6-1.1-4.9-4,0.6,0.7c-1.8-1.9-1.4-1.3,1.3,2c-1.3-2.3-1-1.5,0.8,2.4c-1.2-3.8,0.2,1.9,0.2,2.4c-0.5-5.2-1.6,5.8,0.1,0.9
					c-2.2,6.6-0.8,2.4,0.1,0.5c2.4-4.8-3.9,3.9-0.1,0.1c1.9-1.9,3.7-3.9,5.7-5.7c1.3-1.1,2.5-2.2,3.9-3.3c0.9-0.7,1.7-1.4,2.6-2.1
					c-2.7,2.1-3.3,2.5-1.8,1.4c4.8-3.5,9.7-6.8,14.9-9.8c2.9-1.7,5.9-3.3,9-4.8c0.4-0.2,4.4-2.3,4.6-2.1c-0.3-0.3-5.9,2.2-0.1,0.2
					c1.5-0.5,3.1-1,4.7-1.4c0.5-0.1,1-0.2,1.6-0.4c2.8-0.5,2.1-0.5-2.1,0.2c0.7,0.1,2.3,0,3.1-0.1c5.1-0.5-5.5-1.8-0.8-0.1
					c-1.1-0.5-2.2-1-3.3-1.5c10,5.8,9.2-4.2-2.7-29.8c-1.3,1-2.4,2.3-3.6,3.3c-0.8,0.7-1.7,1.4-2.6,2.1c-2.1,1.7-1.7,1.4,1.2-0.9
					c-0.9,0.7-1.8,1.3-2.7,2c-5,3.6-10.2,6.8-15.6,9.8c-2.5,1.3-5,2.6-7.5,3.7c-0.5,0.2-1,0.5-1.5,0.7c-2.5,1.1-2,0.9,1.5-0.6
					c-0.1,0.6-5.5,2.1-6.3,2.4c-2.8,0.9-5.5,1.6-8.3,2.4c-5.5,1.6,5.6,0.3,0,0c-0.6,0-1.1,0-1.7,0c-2.8-0.2-2.3,0,1.8,0.4
					c0.1,0.1-3-1-3.3-0.9c1.3,0.5,2.5,1,3.8,1.5c-2.2-1.4-1.5-0.8,2,1.7c-0.3-0.3-0.6-0.6-0.9-0.9c-1.7-2-1.2-1.3,1.6,2.1
					c-1.3-2.3-0.9-1.4,0.9,2.6c-0.5-1.9-0.5-1.6-0.1,1c0.1,0.7,0.2,1.4,0.3,2.2c0-2.7-0.1-1.6-0.5,3.1c-0.7,2.6-2.1,4.8-4,6.6
					c0.6-0.7,1.3-1.4,2-2c-1,0.7-1.9,1.5-2.9,2.2c0.8-0.6,1.7-1.2,2.6-1.7c1.4-0.9,2.8-1.8,4.2-2.6c0.8-0.5,10.1-5.6,10.3-5.2
					c0.1,0.2-6.1,2.3-1.5,0.7c2.1-0.7,4.2-1.5,6.3-2.1c3.2-1,6.4-1.7,9.6-2.4c1.3-0.3,3.8-0.2,4.9-0.8c-4,0.5-4.7,0.6-1.8,0.3
					c1.1-0.1,2.2-0.2,3.3-0.3c3.3-0.2,6.6-0.2,9.9-0.1c1.7,0.1,3.3,0.2,5,0.3c2.8,0.3,2.2,0.2-1.8-0.3c1.1,0.2,2.2,0.3,3.3,0.5
					c-2-15.5-4.1-31.1-6.1-46.6c-4.8,2.3,4.7-1.1-0.1,0c-1.1,0.3-2.1,0.6-3.2,0.9c-2.2,0.4-2.2,0.5,0.1,0.1c2.3-0.3,2.3-0.3,0.1-0.1
					c-0.8,0.1-1.7,0.1-2.5,0.1c-1.9,0-3.9-0.1-5.8-0.3c-6.1-0.7-13.9,3.3-18,7.5c-4.4,4.4-7.8,11.7-7.5,18
					c0.7,15.1,11.2,23.9,25.5,25.5c12.9,1.5,25.5-2,37.1-7.6c9.1-4.4,13.4-16.1,12.2-25.4c-1.2-9.2-8.4-19.5-18.3-21.2
					c-20.4-3.6-41.1-3.2-61,3.1c-19.4,6.2-45.9,18.1-51.2,39.9c-6.8,28,18.3,52.3,45.5,51.2c20.1-0.8,40.6-10.3,57.3-21
					c8.4-5.4,17.3-11.5,24.3-18.8c6-6.3,9.9-14.5,10-23.3c0.1-10.8-7.1-21.1-16.3-26.3c-22-12.2-46.3-3.4-66.7,7.7
					c-17.3,9.4-35,22.2-46,38.8c-7,10.5-9.7,24.6-5.8,36.8c4.5,14.1,15.6,23.6,29.2,28.6c23.6,8.7,51.4-4.9,72.7-14.4
					c9.8-4.4,19.4-9.4,28.7-14.9c9.8-5.8,19.9-12.4,27.2-21.3c5.3-6.5,8.2-12.9,7-21.4c-1-7.2-5.1-15.5-12.2-18.6
					c-7.6-3.4-14.7-5.7-23.2-5.8c-6.6,0-13.7,1.2-20,3.4c-11.4,4-22,9.8-32.4,15.9c-9.2,5.4-18.2,11.3-26.8,17.5
					c-10.7,7.7-23.1,15.5-30.7,26.5c-12.4,18.1-3,42.4,17.6,48.6c12.3,3.7,26.4,1.2,38.4-2.3c21.1-6.2,41.8-16.6,60.2-28.6
					c9.2-6,19.5-12.6,27.1-20.5c14.4-14.9,15.4-42.7-5.2-53.2c-16-8.2-30.8-1.5-43.9,8.3c-9.7,7.2-19.1,14.8-28,22.9
					c-8.4,7.7-17.7,15.9-23.9,25.6c-10.4,16.3-6.8,39.2,12.1,47.2c15.2,6.4,30.9-2,44.6-8.4c8.8-4.1,17.3-8.9,25.3-14.2
					c6.1-4,11.9-8.5,17.7-13c4.2-3.2,8.7-6.5,12.1-10.5c6.8-8,10.4-17.2,9-27.7c-2-15.2-16.4-25.9-31.6-23.9
					c-12,1.6-24,10-33.8,16.8c-11.8,8.2-21.4,17.1-29.8,28.7c-11.3,15.5,3.8,39.4,22,38.4c23.3-1.3,46.1-10.9,61.7-28.6
					c8.8-10,10.6-26.4,0-36.1C1023.4,446.8,1006.5,445,997,455.7L997,455.7z"/>
			</g>
		</g>
		<g>
			<g>
				<path class="st7" d="M946.2,439.8c13.6-7.5,27.7-15.9,37.7-28c6.4-7.7,10.5-15.5,13.9-25c0.3-0.9,0.6-1.8,1-2.6
					c-1.4,3.2-1.6,3.8-0.5,1.7c-2.2,3.4-7.1,6.6-11.2,6.6c-3.4-0.6-3.8-0.6-1.3,0c2.3,0.8,2.1,0.7-0.8-0.5c1.7,0.8,3.5,1.5,5.2,2.3
					c1.7,0.8,3.4,1.6,5,2.6c0.9,0.5,1.8,1.1,2.7,1.7c-2.4-1.9-2.6-2.1-0.8-0.6c0.7,0.8,3.2,2.4,3.2,3.4c-1.9-2.5-2.1-2.8-0.7-0.8
					c0.6,0.9,1.1,1.8,1.7,2.7c0.8,1.4,1.5,2.8,2.2,4.2c0.5,1,0.9,1.9,1.3,2.9c-1.2-2.9-1.4-3.3-0.5-1c1.3,4,2.8,8,3.7,12.1
					c0.3,1.2,0.5,2.4,0.7,3.6c-0.3-2.7-0.4-3.2-0.2-1.5c0,2.1,0.1,4.2,0.1,6.2c-0.2,2.6-0.2,2.4,0.2-0.7c-0.2,1.1-0.4,2.1-0.7,3.1
					c-0.7,4.3,2.3-3.8,0.1,0c-0.4,0.9-0.9,1.7-1.4,2.5c-1.4,2-1,1.6,1-1.1c0.2,0.2-3.1,2.9-3,3c2.7-2,3.1-2.3,1.2-1
					c-0.8,0.5-1.6,0.9-2.5,1.3c3.3-1.3,3.7-1.6,1.4-0.9c-2.4,0.5-1.8,0.4,1.8-0.2c-11.7,0.8-23.1,9.8-22.5,22.5
					c0.5,11.5,9.9,23.4,22.5,22.5c21.4-1.5,38.8-16.1,44.8-36.7c5.7-19.7-0.3-40.8-8.8-58.8c-8.6-18.3-24.3-28.6-42.7-35.6
					c-12-4.6-26.9-2.7-35.8,7.1c-4.2,4.6-6.6,9.4-8.8,15.2c-0.6,1.5-1.2,3-1.7,4.6c-0.6,2.3,0.7-2.1,0.9-2c0,0-1.5,3-1.6,3.2
					c-0.8,1.3-2.2,2.8-2.7,4.2c1.1-3.1,2.4-2.8,0.9-1.2c-0.6,0.7-1.3,1.4-1.9,2.1c-1.3,1.4-2.7,2.7-4.2,4c-0.6,0.5-1.1,1-1.7,1.4
					c-2.7,2.3-1.4,0.3,0.5-0.3c-3.2,1.1-6.4,4.4-9.3,6.2c-3.6,2.2-7.3,4.3-11,6.3c-10.3,5.7-14.6,20.7-8.1,30.8
					C922.2,442.2,935.2,445.9,946.2,439.8L946.2,439.8z"/>
			</g>
		</g>
		<g>
			<g>
				<path class="st7" d="M990.6,412.9c-0.3,0.9,0.7-0.2,0.6-0.1c1.1-0.8,1.4,0.5,0.3-0.3c0,0,1,1.1,1.3,1.6c1.7,2.6,2.8,6.2,3.2,9.2
					c0.2,1.4,0.2,2.8,0.1,4.1c0,0.8-0.1,1.6-0.1,2.4c-0.6,2.2,0,1.6,1.7-1.7c1.8-0.5,3.5-1,5.3-1.4c-0.5,0.1,0.2,0.4,0.2,0.3
					c0,0.2-1.2-1.7-1.3-2.2c-0.7-1.8-1.1-4.2-1.2-6.1c-0.1-0.8,0-2.8-0.1-3.1c2.7,5.1-7.1,3.4-7.1,3.1c0.1,0.7,1.3,2.8,1.8,3.4
					c0.2,0.4,0.4,0.8,0.5,1.2c0.2-1.8,1.2-3.2,2.9-4.3c-5.6,0.8-8.7,8-7.3,12.9c1.7,6.1,7.3,8.1,12.9,7.3
					c8.7-1.2,13.4-10.5,12.3-18.6c-1-7.3-5.8-16.2-12.2-20.1c-7.4-4.5-17.6-2.9-22.3,4.8c-3.6,6.1-2.8,13.6-1.6,20.2
					c1.1,6.3,3.9,12.8,8.8,17.1c6.5,5.7,16.7,7.3,23.1,0.5c5.3-5.6,5.2-15.3,4.3-22.4c-1-7.6-3.5-15.3-8.5-21.3
					c-11.3-13.6-32.2-8-37.8,7.7c-1.9,5.3,2.2,11.5,7.3,12.9C983.5,421.9,988.7,418.3,990.6,412.9L990.6,412.9z"/>
			</g>
		</g>
		<g>
			<g>
				<path class="st7" d="M1039.3,605.5c12.4-6.6,19.5-18.7,24.3-31.4c5.1-13.6,8.6-28.3,11.4-42.6c3.2-16.6,4.7-33.3,2.4-50.1
					c-2.1-15.1-7.8-29.3-16.1-42.1c-9.3-14.3-21-26.9-32.7-39.2c-9.3-9.8-24.2,5-14.8,14.8c11.2,11.8,22.6,23.8,31.1,37.8
					c9.1,15,13.1,31.2,12.7,48.7c-0.5,18.2-5,35.9-9.8,53.4c-3.4,12-7.2,26.4-19,32.7C1016.8,593.7,1027.4,611.9,1039.3,605.5
					L1039.3,605.5z"/>
			</g>
		</g>
		<g>
			<g>
				<path class="st7" d="M1094.9,506.3c2.3-18.9,0.6-38.5-4.6-56.8c-5-17.4-13.2-33.8-21.4-49.9c-8.5-16.9-18.8-31.9-34.4-42.9
					c-7.2-5.1-15.7-8.8-24.2-11.2c-9.2-2.5-21.1-4.6-30.5-1.8c-7.5,2.2-14,7.1-17.6,14.1c-3.2,6.3-3.5,12.9-3.9,19.8
					c0,0.9-0.2,1.7-0.2,2.6c-0.1,3,1.2-5.2-0.1,0c-0.5,1.9-0.9,3.9-1.6,5.8c-0.2,0.7-1.5,4.2-0.4,1.3c1-2.8-0.4,0.7-0.7,1.2
					c-1.2,2.3-2.6,4.5-4.1,6.6c-6.8,9.7-2.1,25.4,8.1,30.8c11.5,6.1,23.5,2.2,30.8-8.1c6-8.5,10.2-18.7,11.8-29
					c0.6-3.6,1.1-7.4,1.3-11.1c0-0.9,0.6-3.8,0.1-4.5c0,2.2-0.6,4.3-1.8,6.2c-15,5.8-19.1,8.5-12.4,8.2c1.1,0,2.1,0,3.2,0.1
					c2.5,0.2,2.1,0.1-1.2-0.3c1.9-0.2,4.5,0.8,6.3,1.3c1.4,0.4,5.2,0.9,6.1,2c-2.6-1.2-3.2-1.4-1.7-0.7c0.7,0.3,1.5,0.7,2.2,1
					c1.9,1,3.8,2,5.6,3.2c0.9,0.6,1.8,1.2,2.7,1.8c-2.4-1.9-2.7-2.1-0.8-0.5c1.6,1.5,3.2,2.9,4.7,4.5c0.8,0.8,1.5,1.7,2.3,2.6
					c1.6,1.9,1.5,1.8-0.4-0.5c1.4,1.1,2.4,3.5,3.4,5c4.8,7.7,8.8,15.9,12.8,24.1c1.9,3.8,3.8,7.7,5.5,11.6c0.4,0.9,3.9,8,1.4,3.1
					c1.1,2.1,1.8,4.6,2.6,6.8c1.7,4.6,3.1,9.4,4.3,14.2c0.4,1.8,0.8,3.7,1.2,5.6c0.2,1.1,2.1,9,0.6,3.4c1.2,4.7,0.8,10.4,0.8,15.2
					c0,5.1-0.4,10.1-1.1,15.2c-0.7,5.3,3,12.3,6.6,15.9c3.9,3.9,10.3,6.8,15.9,6.6C1085.8,528.2,1093.4,518.9,1094.9,506.3
					L1094.9,506.3z"/>
			</g>
		</g>
		<g>
			<g>
				<path class="st7" d="M1082.7,519.1c0.6-2.1,1.3-4.2,2.1-6.3c-1.8,4.2-3.5,8.4-5.3,12.5c1.7-4.1,3.9-8,6.4-11.6
					c-27.5,3.5-55,7.1-82.5,10.6c0.3,0.3,0.6,0.7,0.9,1c-2.7-3.5-5.5-7.1-8.2-10.6c0.6,0.7,1,1.5,1.4,2.3c-1.8-4.2-3.5-8.4-5.3-12.5
					c0.7,1.7,1.2,3.4,1.4,5.3c-0.6-4.7-1.3-9.3-1.9-14c0.2,2.4,0.1,4.8-0.2,7.2c0.6-4.7,1.3-9.3,1.9-14
					c-2.5,15.6-8.2,31.1-14.2,45.6c1.8-4.2,3.5-8.4,5.3-12.5c-2.8,6.6-5.6,13.7-9.8,19.6c2.7-3.5,5.5-7.1,8.2-10.6
					c-0.9,1.1-1.9,2.1-3,3.1c3.5-2.7,7.1-5.5,10.6-8.2c-0.7,0.6-1.5,1-2.3,1.4c4.2-1.8,8.4-3.5,12.5-5.3c-0.8,0.4-1.7,0.6-2.7,0.8
					c4.7-0.6,9.3-1.3,14-1.9c-1,0.1-1.9,0.1-2.8-0.1c4.7,0.6,9.3,1.3,14,1.9c-0.9-0.2-1.8-0.5-2.7-0.9c4.2,1.8,8.4,3.5,12.5,5.3
					c-0.9-0.4-1.7-1-2.4-1.6c3.5,2.7,7.1,5.5,10.6,8.2c-0.8-0.6-1.4-1.3-2.1-2.1c2.7,3.5,5.5,7.1,8.2,10.6c-0.9-1.3-1.6-2.4-2.2-3.8
					c1.8,4.2,3.5,8.4,5.3,12.5c-0.6-1.8-0.9-3.3-1.2-5.2c0.6,4.7,1.3,9.3,1.9,14c-0.3-3.6,0-7.1,0.5-10.7c-0.6,4.7-1.3,9.3-1.9,14
					c2.4-16.8,6.9-33.1,13.4-48.8c-1.8,4.2-3.5,8.4-5.3,12.5c1.1-2.6,2.2-5.3,3.6-7.8c-2.7,3.5-5.5,7.1-8.2,10.6
					c0.5-0.7,1.1-1.4,1.9-1.8c-7.7,4.5-15.4,9-23.2,13.5c0.4-0.1,0.7-0.2,1.1-0.3c-9.3,0-18.6,0-27.9,0c0.4,0.1,0.7,0.2,1.1,0.3
					c-7.7-4.5-15.4-9-23.2-13.5c0.2,0.3,0.5,0.5,0.7,0.8c-2.7-3.5-5.5-7.1-8.2-10.6c0.2,0.3,0.3,0.7,0.5,1
					c-1.8-4.2-3.5-8.4-5.3-12.5c0.8,2.3,1.3,4.5,1.7,6.9c-0.6-4.7-1.3-9.3-1.9-14c0.6,4.8,0.4,9.5-0.2,14.3c0.6-4.7,1.3-9.3,1.9-14
					c-2,13.2-5.6,26.7-10.8,39.1c1.8-4.2,3.5-8.4,5.3-12.5c-2.4,5.5-5.2,10.7-8.8,15.6c2.7-3.5,5.5-7.1,8.2-10.6
					c-2.5,3.1-5.2,6-8.3,8.5c3.5-2.7,7.1-5.5,10.6-8.2c-1.3,1-2.6,1.8-4,2.6c4.2-1.8,8.4-3.5,12.5-5.3c-1,0.4-2,0.7-3,0.7
					c4.7-0.6,9.3-1.3,14-1.9c-0.5,0-0.9-0.1-1.4-0.1c4.7,0.6,9.3,1.3,14,1.9c-0.4-0.1-0.9-0.2-1.3-0.3c4.2,1.8,8.4,3.5,12.5,5.3
					c-0.9-0.3-1.7-0.7-2.4-1.3c3.5,2.7,7.1,5.5,10.6,8.2c-0.8-0.6-1.4-1.2-2-2c2.7,3.5,5.5,7.1,8.2,10.6c-0.6-0.7-1.1-1.6-1.5-2.4
					c1.8,4.2,3.5,8.4,5.3,12.5c-0.6-1.6-0.9-3-1.2-4.6c0.6,4.7,1.3,9.3,1.9,14c-0.3-3.4,0-6.6,0.5-10c-0.6,4.7-1.3,9.3-1.9,14
					c1.3-8.3,3.9-16.2,7.1-24c-1.8,4.2-3.5,8.4-5.3,12.5c3.1-7.2,6.6-14.2,10.2-21.1c6.4-12.5,9.1-26.6,5.3-40.5
					c-3.4-12.2-12.8-25.4-24.1-31.4c-12.2-6.4-26.9-9.7-40.5-5.3c-12.6,4.1-25.1,12-31.4,24.1c-3.6,7-7.1,13.9-10.2,21.1
					c-4.6,10.7-9.5,21.5-11.8,33c-1.4,7.4-2.6,15.1-3,22.6c-0.1,1.6,0,3.2,0.1,4.8c0.4,6.1,1,12.7,3.1,18.6
					c3.6,10.4,8.7,20.1,17,27.6c11.4,10.4,25.9,17,41.6,17.1c19.1,0.1,37-9.5,49.8-23.2c7-7.5,13.6-16.1,18.2-25.3
					c7.9-15.8,13.6-32.8,17.1-50.1c2.3-11.2,4.4-23.1,3.2-34.6c-1.3-12.3-2.9-23-9.1-33.9c-9.5-16.6-28.1-27.6-47.3-27.6
					c-12.1,0-23.4,4.3-32.9,11.6c-6.1,4.7-6.5,5.1-11.3,11.2c-6.2,8-9.1,16.2-13,25.6c-3,7.3-5.7,14.7-7.8,22.2
					c-2.2,7.6-3.9,15.2-5.1,23c-2.5,16-5,31.5,0.2,47.4c3.4,10.5,8.8,20.2,16.7,28.1c8.1,8.2,17.8,13.2,28.7,16.8
					c10,3.3,24.2,2.8,34.1-0.5c10.4-3.4,20.7-9.1,28-17.4c8.4-9.5,13.6-19.3,18.5-30.8c5-11.8,9.9-23.5,13.7-35.7
					c3.8-12.1,6.2-23.8,7.7-36.4c0.9-7.7-0.3-15.7-2-23.2c-2.5-11.4-9.4-21.2-16.9-29.7c-10.9-12.3-28.5-16.5-44.1-14.4
					c-17,2.3-28.7,11.1-38.4,25.1c-6.3,9.1-10.8,19.9-13.8,30.5c-3.7,13-1.5,28.8,5.3,40.5c6.4,10.9,18.9,21.3,31.4,24.1
					c13.4,3.1,28.5,2.4,40.5-5.3C1070.1,543,1078.8,532.5,1082.7,519.1L1082.7,519.1z"/>
			</g>
		</g>
		<g>
			<g>
				<path class="st7" d="M1035.5,612c-1.9-1.7-2.3-2-1.3-1.1c1,1,0.7,0.6-1-1.3c-1.4-2.4-0.7-2.4-0.3,0.4c1.7-6.3,3.3-12.6,5-19
					c-0.4,0.5-6.8,7.5-7.2,7.1c2.1-1.6,2.3-1.7,0.5-0.4c-0.8,0.6-1.6,1.1-2.4,1.6c-1.2,0.8-2.4,1.5-3.7,2.2
					c-1.7,0.9-3.4,1.7-5.1,2.6c-3.6,1.8,3.5-1.1-0.7,0.2c-3.3,1.1-6.5,2.2-9.8,3c-3.4,0.9-6.8,1.5-10.2,2.1c-1,0.2-5.6,1.4-0.8,0.1
					c-1.9,0.5-4.1,0.4-6,0.6c-6.8,0.6-13.6,0.7-20.4,0.7c-7.6,0-15.1-0.3-22.6-0.9c-2.2-0.2-4.5-0.4-6.7-0.6c-1-0.1-6-0.8-1.5-0.1
					c-3.9-0.6-7.7-1.2-11.5-2c-7.6-1.6-15-3.8-22.2-6.5c-5.1-1.9,3.5,1.7-1.4-0.6c-2-0.9-4-1.9-5.9-2.9c-3.4-1.8-6.7-3.8-10-5.9
					c-8.5-5.6-21.9-2-26.7,7c-5.2,9.8-2.1,20.7,7,26.7c27,17.8,59.8,23.6,91.5,24.6c28.4,1,59.6-0.7,84.6-15.7
					c7.6-4.6,14.8-10.4,20.3-17.5c10.1-13.1,0.2-30.8-11.9-38.3c-8.7-5.4-21.8-2.2-26.7,7C1023.4,594.9,1026.2,606.3,1035.5,612
					L1035.5,612z"/>
			</g>
		</g>
		<g>
			<g>
				<path class="st7" d="M1018.2,567.6c-11.3,7-22.9,13.5-34.8,19.2c-3.3,1.6-6.5,3.1-9.8,4.6c-1.4,0.6-2.8,1.2-4.1,1.8
					c-1.2,0.5-1.1,0.5,0.1,0c-0.6,0.2-1.1,0.5-1.7,0.7c-6.3,2.6-12.7,5.3-19.2,7.2c-0.8,0.2-1.6,0.5-2.5,0.6c0.5-0.1,1-0.2,1.5-0.2
					c1.9,0.7,3.2,1,4.6,2.5c2.5,2.6,2.6,6.3,1.9,9.6c0,1.5-0.5,2.9-1.5,4c0.5-0.5,1.1-1,1.7-1.5c1.1-1,2.7-2,0.6-0.6
					c1.3-0.9,2.5-1.8,3.9-2.6c1.3-0.8,2.7-1.6,4.1-2.3c0.4-0.2,4.2-2.1,2.1-1.1c-2.1,1,1.8-0.7,2.2-0.8c1.5-0.5,3-1,4.5-1.4
					c1.5-0.4,3-0.8,4.6-1.1c0.5-0.1,4.7-0.6,2.2-0.4c-2.5,0.2,1.8-0.1,2.3-0.1c1.6-0.1,3.1-0.1,4.7-0.1c1.6,0,3.1,0.2,4.7,0.3
					c-3.2-0.2-0.1,0,1.4,0.3c-4.2-4.2-8.4-8.4-12.6-12.6c-1.2-5.9,0.2-10.1,4.2-12.6c-0.5,0.3-1,0.7-1.5,1c-1.6,0.9-3.1,1.9-4.6,2.9
					c-3.3,2.1-6.7,4-10.2,5.9c-6.3,3.5-12.8,6.7-19.5,9.7c-0.8,0.4-1.7,0.7-2.5,1.1c1.2-0.5,1.3-0.5,0.1-0.1c-2,0.8-3.9,1.6-5.9,2.3
					c-3.4,1.3-6.8,2.5-10.3,3.6c-3.4,1.1-7,2.1-10.6,2.5c3.1-0.4-1.7,0-2.4,0c-0.7,0-5.7-0.5-2.3,0.1c-0.8-0.1-1.6-0.3-2.4-0.5
					c-7.5-2.2-5.8,4.7,5.2,20.8c1.2-1.2,1.3-1.3,0.3-0.5c-1.1,0.8-0.9,0.7,0.5-0.2c3.3-1.8,6.6-3.8,9.8-5.7
					c6.6-3.7,13.2-7.4,20-10.9c14-7.4,28.2-14.2,42.6-20.7c8.1-3.7,10.5-15,7.4-22.5c-3.2-7.5-12.9-13.8-21.2-10.4
					c-13.5,5.4-27,10.8-41,15.1c-6.8,2.1-13.6,3.9-20.6,5.3c-1.8,0.4-3.6,0.7-5.4,1c-0.6,0.1-5.8,0.8-2.5,0.4
					c-3.7,0.4-7.3,0.7-11,0.9c4.2,10.2,8.5,20.5,12.7,30.7c22.9-22.4,43.9-38.4,71.9-54.6c-8.2-8.2-16.4-16.4-24.6-24.6
					c2.3-3-1.8,2.2-2.3,2.7c-1.4,1.6-2.8,3.3-4.3,4.9c-2.6,2.8-5.3,5.4-8,8c-2.8,2.6-5.7,5-8.6,7.4c2.9-2.3-2.3,1.7-2.9,2
					c-1.5,1.1-3.1,2.2-4.7,3.2c-6.6,4.3-13.5,8-20.7,11.2c3.5-1.6-2.6,1-3.2,1.3c-1.3,0.5-2.6,0.7-3.8,1.2c-2,0.4-1.8,0.4,0.8,0.1
					c-0.9,0.1-1.7,0.1-2.6,0.1c1.6,0,3,0.4,4.3,1.3c1.9,1.7,2.2,1.9,0.9,0.4c0,8.5,0,17,0,25.5c10.7-10.3,21.8-20.3,33.2-30
					c5.7-4.8,11.5-9.5,17.3-14.1c0.4-0.3,4.4-3.4,2.2-1.8c1.2-1,2.5-1.9,3.7-2.8c3.2-2.4,6.5-4.8,9.7-7.2
					c-7.3-9.4-14.5-18.8-21.8-28.3c-1.8,2-3.7,3.9-5.6,5.7c-1.2,1.1-2.4,2.2-3.6,3.2c-0.3,0.3-3.6,3-1.9,1.6c1.7-1.4-1.7,1.2-2,1.5
					c-1.1,0.8-2.2,1.5-3.3,2.2c-2.5,1.6-5,3.1-7.6,4.5c-2.3,1.3-4.7,2.4-7.2,3.5c2.3-1.1,0.5-0.2-0.9,0.3c-1.2,0.5-2.5,0.9-3.8,1.4
					c-5.6,1.9-11.2,3.3-17,4.3c-9.3,1.6-15.4,13.5-12.6,22.1c3.3,10.1,12.2,14.3,22.1,12.6c26.1-4.4,50.7-18,68.7-37.4
					c6.1-6.6,7-16.4,1.4-23.6c-5-6.5-16-10-23.2-4.6c-25.8,18.9-50.4,39.4-73.4,61.5c-7.4,7.1-6.3,18.2,0,25.5
					c16.7,19.2,46.8,3,63.8-7.3c18.9-11.4,34.5-26.3,47.9-43.7c4.6-6,2.5-16.9-2.8-21.8c-5.9-5.4-14.7-7-21.8-2.8
					c-28.7,16.7-55.4,37-79.2,60.2c-10.8,10.6-3,31.4,12.7,30.7c31.6-1.4,61-12.3,90.1-23.9c-4.6-11-9.2-21.9-13.9-32.9
					c-14.4,6.5-28.6,13.4-42.6,20.7c-6.7,3.5-13.4,7.2-20,10.9c-7.9,4.5-16.6,8.8-21.6,16.8c-6.6,10.6-3.7,24.7,6.9,31.4
					c7.8,4.9,18.2,5.5,27.1,4.6c17-1.8,33.1-8.8,48.4-15.9c6.6-3.1,13-6.4,19.3-10c7.8-4.5,17.1-9.2,22.1-17
					c6.9-10.8,3.8-27.5-9.9-31.3c-7.3-2-15.8-2.3-23.4-1.6c-15.1,1.4-29.8,6.3-42,15.4c-8.2,6.1-16.2,13.4-16.6,24.4
					c-0.4,10.6,5.6,20.1,15.1,24.7c10.5,5.1,21.3,2.7,31.7-1.1c8.8-3.3,17.5-6.9,26.1-10.7c15.4-6.9,30.3-14.9,44.7-23.8
					c8-5,11.8-16.3,6.5-24.6C1037.6,566.1,1026.7,562.3,1018.2,567.6L1018.2,567.6z"/>
			</g>
		</g>
		<g>
			<g>
				<path class="st7" d="M868.4,609.2c8.4-1.3,11.8-11.7,7.8-18.6c-3-5.2-9.5-8.6-14.8-10.9c-11.6-5-24.2-6-36.6-6.2
					c-13.5-0.3-13.5,20.7,0,21c6.5,0.1,13.1,0.3,19.5,1.7c5.2,1.1,12,2.9,15.4,7.1c-0.9-1.5-1.8-3.1-2.7-4.6c0.1,0.3,0.3,0.7,0.4,1
					c0-1.9,0-3.7,0-5.6c-0.1,0.4-0.1,0.8-0.2,1.1c0.9-1.5,1.8-3.1,2.7-4.6c-0.2,0.3-0.5,0.6-0.7,0.9c1.5-0.9,3.1-1.8,4.6-2.7
					c-0.3,0.1-0.7,0.1-1,0.2c-5.6,0.9-8.7,7.9-7.3,12.9C857.2,607.9,862.8,610.1,868.4,609.2L868.4,609.2z"/>
			</g>
		</g>
		<g>
			<g>
				<path class="st7" d="M818.9,568.9c-7.4-10.3-8.6-22.8-6.6-35c2.3-14.1,7.2-28,11.6-41.6c7.7-23.8,17.3-47.8,35.4-65.7
					c9.6-9.5-5.2-24.4-14.8-14.8c-21.1,20.9-32.4,48.7-41.3,76.5c-9.2,28.6-22.1,64-2.4,91.3c3.3,4.6,9.1,6.8,14.4,3.8
					C819.7,580.6,822.2,573.5,818.9,568.9L818.9,568.9z"/>
			</g>
		</g>
		<g>
			<g>
				<path class="st7" d="M956.5,352.3c-1.1,2.1-2.3,4.2-3.6,6.2c-0.6,1-1.4,2-2,3c-1.5,2.4,3.6-4.2,0.5-0.6c-3,3.4-6.1,6.7-9.6,9.6
					c-1.6,1.3-3.6,1.6,0.6-0.4c-0.8,0.4-1.6,1.1-2.3,1.7c-2,1.4-4,2.6-6.1,3.8c-2.1,1.2-4.3,2.2-6.4,3.3c-3.7,1.8,3.4-1.2,0.7-0.3
					c-1.1,0.4-2.3,0.8-3.4,1.2c-4.4,1.5-8.8,2.3-13.3,3.3c-2.8,0.6,5.9-0.5,1-0.1c-1.2,0.1-2.4,0.2-3.6,0.3
					c-2.2,0.1-4.3,0.2-6.5,0.1c-1.7,0-5.9,0.4-7.4-0.5c1.6,1,4.2,0.7,0.4-0.1c-1.3-0.3-2.6-0.6-3.9-1c-0.5-0.1-2.7-1.2-3-1
					c2.7,1.2,3.2,1.4,1.7,0.7c-0.5-0.2-0.9-0.5-1.4-0.7c-0.8-0.4-2.9-1.2-3.3-2.1c0.7,0.5,1.4,1,2.1,1.5c-3.8-4-2.7-0.7,3.4,9.9
					c-1,3.8-2,7.6-3.1,11.4c-0.7,1-1.5,1.9-2.2,2.9c-3.3,1.9-6.6,3.9-9.9,5.8c0.3-0.1,0.7-0.1,1-0.2c-4,0-8,0-12,0
					c-8.5-3-7.7-4.6-3.6-1.2c1.4,1.2,2.8,2.3,4.2,3.5c9.1,7.5,23.1,9.5,31.8,0c7.6-8.3,9.7-23.8,0-31.8c-4.4-3.7-9-8.4-14-11.2
					c-9.4-5.4-21.4-4.2-29.4,3.3c-6.6,6.3-9.4,15.8-7.2,24.7c2.1,8.6,8.1,14.3,14.9,19.3c14,10.4,33.9,13.1,50.9,11.4
					c34.1-3.5,66.8-21.7,82.9-52.9c5.4-10.4,3-24.9-8.1-30.8C976.9,338.8,962.2,341.1,956.5,352.3L956.5,352.3z"/>
			</g>
		</g>
		<g>
			<g>
				<path class="st7" d="M867,382.1c-9.2,3.5-18.6,6-28.2,7.6c-5.6,0.9-8.7,7.9-7.3,12.9c1.6,5.9,7.3,8.3,12.9,7.3
					c9.7-1.6,19-4.2,28.2-7.6c5.3-2,8.9-7.1,7.3-12.9C878.5,384.3,872.3,380,867,382.1L867,382.1z"/>
			</g>
		</g>
		<g>
			<g>
				<path class="st7" d="M855.9,375.7c-9.1-0.8-18.7-0.7-27.4,2.5c-14.1,5.3-22,15.7-27.2,29.4c-7.5,19.7-11.1,40.7-13.9,61.6
					c-2.6,19.9-4.2,40-6,60c-2,22.1-4.3,43.5-0.9,65.5c1.8,11.7,17,19.2,27.7,15.7c12.7-4.1,17.7-15.2,15.7-27.7
					c0.9,5.6-0.2-2.5-0.3-3.6c-0.1-2.2-0.2-4.5-0.2-6.7c0-4.5,0.2-9,0.5-13.5c0.6-9.3,1.6-18.6,2.4-27.9c1.6-17.6,2.9-35.2,5-52.7
					c0.3-2.2,0.5-4.3,0.8-6.5c0.2-1.7,0.2-1.2-0.2,1.4c0.2-1.2,0.4-2.5,0.5-3.7c0.6-4.3,1.4-8.5,2.2-12.8c1.6-8.5,3.6-16.9,6.1-25.2
					c0.3-1,3.2-12.1,4.1-12.1c-1.2,2.8-1.3,3.1-0.3,0.8c0.5-1,1.1-1.9,1.7-2.8c-1.8,2.3-2,2.7-0.4,1.1c-0.8,0.6-1.5,1.3-2.3,1.9
					c2.1-1.1,1.6-1-1.6,0.5c0.9-0.3,1.8-0.6,2.7-0.8c4.3-1.5-4.6,0-0.3,0c3.9,0,7.8,0,11.7,0.3c11.8,1,23-11,22.5-22.5
					C877.9,385.2,868.5,376.8,855.9,375.7L855.9,375.7z"/>
			</g>
		</g>
		<g>
			<g>
				<path class="st7" d="M916.9,583.2c0.3,0,0.5,0,0.8,0c-9.9-4.1-19.8-8.2-29.7-12.3c0.1,0.1,0.3,0.3,0.4,0.4
					c-3.6-6.2-7.2-12.4-10.8-18.5c0,0.2,0.1,0.4,0.1,0.7c0-7.4,0-14.9,0-22.3c0,0.6-0.2,1.2-0.5,1.7c1.4-3.3,2.8-6.7,4.2-10
					c-0.2,0.3-0.4,0.6-0.6,0.9c2.2-2.8,4.4-5.7,6.6-8.5c-0.2,0.3-0.5,0.5-0.7,0.8c2.8-2.2,5.7-4.4,8.5-6.6c-5.1,3.3-11.5,5.3-17,7.8
					c-6.3,2.8-12.6,5.6-18.9,8.5c-12.3,5.5-24.6,11-36.9,16.5c3.3-1.4,6.7-2.8,10-4.2c-1,0.5-2,0.8-3.1,1c3.7-0.5,7.4-1,11.2-1.5
					c-0.5-0.1-1.1-0.1-1.6-0.2c7.1,1.9,14.1,3.8,21.2,5.7c-0.3-0.2-0.6-0.3-0.9-0.5c2.8,2.2,5.7,4.4,8.5,6.6
					c-0.2-0.2-0.4-0.5-0.6-0.7c3.6,6.2,7.2,12.4,10.8,18.5c-0.1-0.3-0.2-0.6-0.4-0.9c0.5,3.7,1,7.4,1.5,11.2c-0.1-0.7-0.1-1.4,0-2.1
					c-0.5,3.7-1,7.4-1.5,11.2c0.2-0.8,0.4-1.5,0.8-2.3c-1.4,3.3-2.8,6.7-4.2,10c0.4-0.8,0.8-1.5,1.3-2.2c-2.2,2.8-4.4,5.7-6.6,8.5
					c2.3-2.7,5.3-4.9,8-7.1c-2.8,2.2-5.7,4.4-8.5,6.6c9.7-7.4,20.2-13.5,31.4-18.2c-3.3,1.4-6.7,2.8-10,4.2
					c9.2-3.8,18.7-6.6,28.5-8.4c-10.8-25.6-21.6-51.2-32.4-76.8c-16.7,11-34.3,20.5-52.7,28.4c3.3-1.4,6.7-2.8,10-4.2
					c-9.6,4-20,8.9-30.3,10.9c3.7-0.5,7.4-1,11.2-1.5c-0.5,0-1,0-1.5,0c3.7,0.5,7.4,1,11.2,1.5c-0.5-0.1-1-0.3-1.4-0.4
					c3.3,1.4,6.7,2.8,10,4.2c-0.3-0.2-0.6-0.4-0.9-0.7c2.8,2.2,5.7,4.4,8.5,6.6c-0.2-0.3-0.4-0.5-0.7-0.8c2.2,2.8,4.4,5.7,6.6,8.5
					c-0.1-0.3-0.3-0.6-0.4-1c1.4,3.3,2.8,6.7,4.2,10c-0.1-0.4-0.1-0.7-0.2-1.1c0.5,3.7,1,7.4,1.5,11.2c0-0.4,0-0.8,0-1.2
					c-0.5,3.7-1,7.4-1.5,11.2c0.2-1.3,0.5-2.4,1-3.7c-1.4,3.3-2.8,6.7-4.2,10c1-2.2,2.4-4.1,3.9-6c-2.2,2.8-4.4,5.7-6.6,8.5
					c9.3-12,20.2-22.5,32.1-31.9c-2.8,2.2-5.7,4.4-8.5,6.6c19-14.7,40.2-26.1,62.1-35.9c-17-22-33.9-44-50.9-66
					c-9,8.4-18.3,16.4-28,23.9c2.8-2.2,5.7-4.4,8.5-6.6c-9.5,7.3-19.3,14.2-29.5,20.7c-9.9,6.3-20.2,12.8-31,17.5
					c3.3-1.4,6.7-2.8,10-4.2c-1,0.4-1.9,0.7-3,0.9c3.7-0.5,7.4-1,11.2-1.5c-1,0.2-2,0.2-2.9,0c3.7,0.5,7.4,1,11.2,1.5
					c-0.5-0.2-0.9-0.3-1.4-0.5c3.3,1.4,6.7,2.8,10,4.2c-0.3-0.2-0.7-0.5-1-0.7c2.8,2.2,5.7,4.4,8.5,6.6c-0.3-0.3-0.6-0.6-0.9-0.9
					c2.2,2.8,4.4,5.7,6.6,8.5c-0.5-0.7-0.9-1.4-1.2-2.2c1.4,3.3,2.8,6.7,4.2,10c-0.1-0.4-0.2-0.8-0.3-1.2c0.5,3.7,1,7.4,1.5,11.2
					c-0.2-0.8-0.2-1.7-0.1-2.6c-0.5,3.7-1,7.4-1.5,11.2c0.1-1,0.3-1.9,0.7-2.9c-1.4,3.3-2.8,6.7-4.2,10c0.9-2.1,2.1-3.9,3.5-5.7
					c-2.2,2.8-4.4,5.7-6.6,8.5c23.3-29.6,48.5-57.7,75.1-84.4c-23.9-9.9-47.8-19.8-71.7-29.7c0.1,1.1,0,2.1-0.1,3.2
					c0.5-3.7,1-7.4,1.5-11.2c-0.3,1.6-0.7,3-1.2,4.5c1.4-3.3,2.8-6.7,4.2-10c-1.3,3-3.1,5.7-5.1,8.3c2.2-2.8,4.4-5.7,6.6-8.5
					c-9.7,12.2-20.6,23.6-31.2,35c-10,10.7-20,22-31.6,31c2.8-2.2,5.7-4.4,8.5-6.6c-3.9,2.9-8,5.4-12.4,7.3c3.3-1.4,6.7-2.8,10-4.2
					c-0.5,0.2-1,0.4-1.5,0.6c13.6,3.6,27.2,7.2,40.9,10.8c-0.3-0.3-0.6-0.6-0.9-1c2.2,2.8,4.4,5.7,6.6,8.5c-0.5-0.7-0.9-1.4-1.2-2.2
					c1.4,3.3,2.8,6.7,4.2,10c-0.1-0.4-0.2-0.8-0.3-1.2c0.5,3.7,1,7.4,1.5,11.2c-0.2-1.3-0.1-2.5,0-3.8c-0.5,3.7-1,7.4-1.5,11.2
					c0.4-1.9,0.9-3.6,1.6-5.3c-1.4,3.3-2.8,6.7-4.2,10c2.7-5.9,6.6-11.4,10.1-16.9c3.9-6.2,7.8-12.4,11.8-18.6
					c7.9-12,16-23.9,24.8-35.2c-2.2,2.8-4.4,5.7-6.6,8.5c9.7-12.5,20.2-24.3,31.7-35.1c-23.4-13.6-46.8-27.2-70.2-40.9
					c-0.6,1.5-1.2,3-1.8,4.5c1.4-3.3,2.8-6.7,4.2-10c-6.6,15.4-15.1,29.9-25.4,43.2c2.2-2.8,4.4-5.7,6.6-8.5
					c-10.3,13.2-22.2,25.1-35.5,35.4c2.8-2.2,5.7-4.4,8.5-6.6c-0.9,0.7-1.8,1.3-2.9,1.7c7.1-1.9,14.1-3.8,21.2-5.7
					c-0.5,0-1.1,0.1-1.6,0.1c3.7,0.5,7.4,1,11.2,1.5c-0.3-0.1-0.6-0.2-0.9-0.3c6.2,3.6,12.4,7.2,18.5,10.8c-0.2-0.2-0.5-0.4-0.7-0.6
					c2.2,2.8,4.4,5.7,6.6,8.5c-0.2-0.2-0.3-0.5-0.5-0.7c1.4,3.3,2.8,6.7,4.2,10c-0.3-0.6-0.4-1.2-0.5-1.9c0.5,3.7,1,7.4,1.5,11.2
					c-0.1-0.7,0-1.5,0.1-2.2c-0.5,3.7-1,7.4-1.5,11.2c0.2-1.1,0.5-2.1,0.9-3.2c-1.4,3.3-2.8,6.7-4.2,10
					c11.1-25.8,24.7-50.5,40.6-73.6c-26.1-7.1-52.2-14.1-78.3-21.2c0,0.5-0.1,1-0.1,1.5c0.5-3.7,1-7.4,1.5-11.2c-0.4,2.6-1,5-2,7.5
					c1.4-3.3,2.8-6.7,4.2-10c-0.9,1.9-1.9,3.6-3.1,5.3c2.2-2.8,4.4-5.7,6.6-8.5c-1,1.2-2,2.3-3.1,3.4c-7.6,7.5-12.3,19.1-12.3,29.7
					c0,10.3,4.6,22.6,12.3,29.7c16.9,15.5,42.6,16.4,59.4,0c13.3-13,19.2-29.3,20.7-47.5c-0.5-3.7-1-7.4-1.5-11.2
					c-1.3-5.5-3.8-10.2-7.5-14.3c-5.4-6.9-13-13-21.8-15.1c-7.4-1.7-14.9-1.7-22.3,0c-10.7,2.4-19.1,10.6-25.1,19.3
					c-9.2,13.3-17.6,27.1-25.2,41.4c-3.9,7.3-7.5,14.7-11,22.2c-2.3,5-4.4,10-6.6,15.1c-3.7,8.8-5.2,17.6-3.9,27.2
					c1.4,10.4,5.4,19.9,13.2,27.3c13,12.3,32,15.9,48.4,8.9c10.8-4.6,20.1-12.8,28.8-20.8c12.8-11.7,23.9-25.2,34-39.4
					c11.5-16.1,19.8-33.6,27.1-51.9c0.5-3.7,1-7.4,1.5-11.2c0.2-5.8-1-11.2-3.6-16.2c-3.4-8.1-9.2-15.9-17.2-20.1
					c-16.9-9-36.8-6.6-50.9,6.6c-22,20.6-40.5,45-57.3,70c-7.5,11.2-14.7,22.7-21.9,34.1c-4.7,7.6-9.3,15.5-11.5,24.2
					c-4.7,18.5,0.1,36.3,12.9,50.3c9.2,10.1,27.8,15.9,40.9,10.8c7.6-2.9,15.3-5.9,22-10.7c6.6-4.7,13.1-9.8,19.1-15.4
					c8.4-8,16.4-16.5,24.3-25c8.1-8.6,15.9-17.3,23.7-26.2c13.5-15.5,25.2-31.4,25-53c-0.2-16.8-10.4-31.9-25.8-38.4
					c-15.4-6.5-33.9-3.4-45.9,8.7c-26.2,26.3-51,54-74,83c-6.5,8.2-13,15.9-15.5,26.4c-3.2,13.1-2,26.1,4.3,38.2
					c5.8,11.2,16.3,19.3,28.2,23c13.8,4.3,26.9,1.2,39.6-4.6c15.5-7,30.2-16.6,44.2-26.2c18.6-12.8,36.3-27,52.8-42.4
					c15.3-14.3,15.6-39.2,3.3-55.1c-5.4-6.9-13-13-21.8-15.1c-3.7-0.5-7.4-1-11.2-1.5c-7.6,0-14.6,1.9-21.2,5.7
					c-31.7,14.1-62.1,32.4-87.1,56.8c-20,19.5-41.4,45.8-28.9,75.3c10.3,24.5,36.5,33.5,61,25.3c11.5-3.8,22.7-8.5,33.8-13.2
					c18.4-7.9,36-17.3,52.7-28.4c17.6-11.6,25.6-32.6,17.2-52.4c-3.4-8.1-9.2-15.9-17.2-20.1c-10.5-5.5-20.7-6.4-32.4-4.2
					c-16.8,3.1-33.1,9.4-48.3,17.1c-6.1,3.1-12.1,6.7-17.7,10.7c-10.2,7.3-20.7,14.7-27.5,25.6c-11.2,18.1-9.9,43.2,5.8,58.4
					c11.3,11,28.9,15.7,44.2,11.3c6.7-1.9,13.2-5.4,19.6-8.3c15-6.7,30-13.4,45-20.2c4.5-2,9-4,13.5-6c7.9-3.5,14.3-8,19.6-14.9
					c8.7-11.2,12.3-25.5,8.5-39.5c-5.1-18.9-22.6-31-41.7-31.6c-22-0.6-43,19.8-42,42C875.9,564.4,893.3,582.5,916.9,583.2
					L916.9,583.2z"/>
			</g>
		</g>
		<g>
			<g>
				<path class="st7" d="M835.4,381.1c-29.5,22.2-29.8,59.4-39.9,91.8c-2.5,8.2-5.3,16.3-7.2,24.6c-2.1,9.7-2.9,19.6-3,29.4
					c-0.3,19.2,0.2,38.4,0.3,57.5c0.1,13.5,21.1,13.5,21,0c-0.1-17.9-0.4-35.8-0.4-53.7c0-8.3,0.2-16.8,1.7-25
					c1.5-8.1,4.1-16,6.6-23.8c5.1-15.9,7.6-32.3,12-48.4c3.4-12.5,8.6-26.2,19.4-34.3c4.5-3.4,6.9-9.1,3.8-14.4
					C847.2,380.4,840,377.7,835.4,381.1L835.4,381.1z"/>
			</g>
		</g>
		<g>
			<g>
				<path class="st7" d="M719.6,609.9c4.1-2.6,8.4-4.5,13.3-5.1c5.8-0.7,11.5-0.4,17.2-1.8c9.8-2.5,18.2-8.6,28.2-10.4
					c5.6-1,8.7-7.8,7.3-12.9c-1.6-5.9-7.3-8.4-12.9-7.3c-10.5,1.9-19.3,8.8-29.7,10.8c-5.3,1-10.9,0.6-16.3,1.6
					c-6.2,1.1-12.3,3.7-17.6,7.1C697.7,599,708.2,617.2,719.6,609.9L719.6,609.9z"/>
			</g>
		</g>
		<g>
			<g>
				<path class="st11" d="M854.6,608.4c-1-6.5-7.9-9.2-13.2-11.4c-5.5-2.4-11.1-4.2-17-5.4c-12.2-2.4-24.4-2.4-36.7-0.6
					c-11,1.6-23.5,4.3-30.9,13.4c-7.8,9.6-14,22.5-14.4,35c-0.2,7.4,7.7,10.5,13.5,7.8c27.4-12.6,57.1-16.6,86.5-21.8
					c4.8-0.9,7.5-6.7,6.3-11.1c-1.4-5.2-6.2-7-11.1-6.3c-13,1.8-26.2-0.9-39.2-0.7c-6.7,0.1-13.6,0.8-20,2.9
					c-6.1,1.9-11.7,5-17.9,6.4c-11.3,2.6-6.5,19.9,4.8,17.4c6.2-1.4,11.8-4.5,17.9-6.4c6.1-2,12.4-2.3,18.8-2.2
					c13.6,0.2,26.8,2,40.4,0c-1.6-5.8-3.2-11.6-4.8-17.4c-15.6,2.8-31.4,5.2-46.9,8.6c-15.2,3.4-29.8,8.5-43.9,15
					c4.5,2.6,9,5.2,13.5,7.8c0.1-4.2,1.5-8.1,3.4-11.8c1.9-3.8,4-8.6,6.9-11.9c4.7-5.3,14.5-6.3,21-7.2c8.1-1.2,16.6-1.3,24.6-0.1
					c4.4,0.6,8.8,1.7,13,3.1c2.9,1,8.1,2.3,10.1,4.6c-0.8-1.3-1.5-2.6-2.3-4c0.1,0.4,0.1,0.7,0.2,1.1c0.8,4.8,6.8,7.5,11.1,6.3
					C853.5,618.1,855.4,613.2,854.6,608.4L854.6,608.4z"/>
			</g>
		</g>
		<g>
			<g>
				<path class="st11" d="M702.5,603.6c-6.4-4.5-13.5-8-20.9-10.6c-7.5-2.6-16.9-5.4-24-0.6c-7.5,5.1-6.7,14.7-2.9,21.9
					c3.6,6.8,9.8,11.9,16.9,14.7c6.7,2.7,14.5,2.8,21.4,0.5c7.8-2.6,18.2-9.2,15.5-18.9c-1.1-3.9-4.4-6.6-7.2-9.3
					c-2.6-2.6-5.1-5.3-7.9-7.6c-6.2-5.3-13.4-8.1-21.6-6.2c-7.7,1.8-14.4,7.7-16.9,15.3c-1.4,4.3-1.3,8.9-0.4,13.3
					c0.8,3.8,2.7,7.4,2.7,11.3c6.5-1.8,13-3.5,19.6-5.3c-5-9.5-11-18.2-17.9-26.4c-3.6-4.3-11.1-3.8-14.8,0
					c-4.3,4.3-3.7,10.5,0,14.8c5.7,6.8,10.5,14.3,14.6,22.2c4.9,9.5,19.5,4.8,19.6-5.3c0.1-5.4-1.7-10.2-3.1-15.3
					c-0.8-3-0.6-2.8,1.3-4.1c-0.3,0.2,1.7-0.1,0.2-0.3c1.3,0.2,2,1,3,1.8c3.8,3.4,7.8,7.2,11.2,11c-0.9-1.5-1.8-3.1-2.7-4.6
					c0.1,0.2,0.1,0.4,0.2,0.6c0.4-2.7,0.7-5.4,1.1-8.1c1-1,1.1-1.1,0.2-0.4c-0.6,0.4-1.3,0.8-1.9,1.1c-0.9,0.4-2.2,0.8-3.2,0.9
					c-1.8,0.3-3.7,0.1-5.4-0.6c-1.6-0.6-3-1.6-4.2-2.8c-0.7-0.8-1.1-1.5-1.7-2.3c-2.4-2.9,3.7-0.4-1.8,3.8c-1.5,0.9-3.1,1.8-4.6,2.7
					c-0.3,0.1-1.9-0.8,0.1-0.1c1,0.4,2.3,0.5,3.4,0.8c2.8,0.7,5.6,1.6,8.3,2.6c4.8,1.9,9.3,4.6,13.5,7.6c4.6,3.3,11.7,0.8,14.4-3.8
					C709.3,612.7,707.1,606.8,702.5,603.6L702.5,603.6z"/>
			</g>
		</g>
		<g>
			<g>
				<path class="st12" d="M532.9,441.3c-1.4,0.4-2.8,0.7-4.2,1.1c-2,0.5-3.2,2.4-3.3,4.3c-1.1,14,8,26.3,12.7,38.9
					c5.2,14,8.4,28.6,9.4,43.5c0.4,5.7,9.4,5.8,9,0c-1-14.4-3.8-28.7-8.5-42.4c-2.3-6.7-5.1-13.1-8.1-19.5c-3.1-6.6-6-13.1-5.5-20.5
					c-1.1,1.4-2.2,2.9-3.3,4.3c1.4-0.4,2.8-0.7,4.2-1.1C540.9,448.5,538.5,439.8,532.9,441.3L532.9,441.3z"/>
			</g>
		</g>
		<g>
			<g>
				<path class="st12" d="M398.9,420.3c-0.1-0.2-0.3-0.5-0.4-0.7c0.6,4.6,1.2,9.2,1.8,13.9c0.1-0.2,0.1-0.5,0.2-0.7
					c-1.5,2.6-3.1,5.3-4.6,7.9c-4.9,5.2-13.4,3.4-6.1,3.7c1.6,0.1,3.3,0.2,4.9,0.2c2.6,0.1,5.3,0.3,7.9,0.4
					c6.6,0.3,13.1,0.6,19.7,0.9c12.5,0.6,25,1.2,37.5,1.8c12.2,0.6,24.3,1.2,36.5,1.7c5.9,0.3,11.8,0.6,17.7,0.8
					c3,0.1,5.9,0.3,8.9,0.4c3.7,0.1,0,0.2-0.4-0.1c-3.5-2.2-5.5-2.6-7-6.2c1.6,3.6,0-2.6,0.1-0.1c0,1.1,0.2,2.3,0.2,3.4
					c0.2,3.2,0.6,6.3,1.1,9.4c1,6.5,3.5,12.6,6.2,18.6c4.5,10.1,10.5,19.3,14.9,29.4c-1-2.3,0.2,0.6,0.3,0.9
					c0.6,1.4,1.1,2.9,1.7,4.3c1,2.6,1.9,5.3,2.8,7.9c2,6,3.9,12,5.9,18c3.7,11.6,7.5,23.2,11.2,34.8c8.6,26.6,17.1,53.2,25.7,79.9
					c4.2-7.4,8.4-14.8,12.6-22.1c-1.3,0.2-2.5,0.4-3.8,0.6c2.6-0.4-0.6,0-0.9,0.1c-2.5,0.2-5.1,0.5-7.6,0.7
					c-5.7,0.4-11.4,0.5-17.2,0.3c-4.8-0.1-9.6-0.4-14.3-0.8c-6-0.5-9.4-1-13.3-1.6c-21.1-3.2-41.8-8.6-62.4-14.1
					c-2.3-0.6-4.6-1.4-6.9-1.9c-3.2-0.7-0.2-0.2,0.3,0.4c-2-2.1-0.4-0.2,0.3,0.3c2.3,1.8,1,1.4,0.5,0.1c-0.3-0.9-0.8-1.7-1.2-2.6
					c-1.4-3-2.7-6.1-4-9.2c-4.4-10.1-8.8-20.1-13.2-30.2c-8.8-20.1-17.6-40.3-26.4-60.4c-10-22.9-20-45.8-30-68.7
					c-6.8,8.8-13.6,17.6-20.3,26.4c7,2.4,14,4.9,20.8,7.6c1,0.4,2,0.8,2.9,1.2c-1.9-0.8-1.8-0.8,0.1,0.1c1.4,0.7,2.9,1.3,4.3,2
					c3.3,1.6,6.6,3.3,9.8,5.1c3.2,1.8,6.1,3.8,9.2,5.9c1.6,1.2,1.7,1.2,0.1,0c0.8,0.6,1.6,1.3,2.4,2c1.2,1,2.3,2,3.4,3.1
					c1.3,1.3,2.6,2.6,3.8,3.9c0.5,0.5,3.9,4.8,1.8,2c2.3,3.1,4.3,6.3,6.1,9.7c0.8,1.4,1.5,2.9,2.2,4.4c0.5,1,0.9,2,1.4,3
					c-0.7-1.8-0.7-1.7,0.1,0.3c1.4,3.6,2.7,7.3,3.8,11c2.3,7.5,4.1,15,5.8,22.6c4,17.8,7.9,35.7,11.9,53.6
					c10-5.8,20.1-11.7,30.1-17.5c0.1,0.1-3-3.6-1.6-1.8c1.4,1.8-1.2-1.6-1.4-1.9c-1.5-2.1-2.9-4.3-4.3-6.5c-2.7-4.4-5-9-7.1-13.7
					c1,2.3,0.3,0.7-0.3-0.7c-0.5-1.2-0.9-2.4-1.4-3.6c-0.9-2.4-1.7-4.9-2.4-7.4c-1.5-5-2.8-10.1-3.8-15.3c-0.5-2.6-1-5.2-1.5-7.8
					c-0.2-1.1-0.3-2.1-0.5-3.2c-0.1-0.4-0.7-5.7-0.2-1.6c-0.6-5.1-1.2-10.1-1.6-15.2c-0.9-10.9-1.3-21.9-1.5-32.8
					c-11.2,3-22.4,6.1-33.5,9.1c14,18.9,25.9,39.2,35.4,60.6c0.5,1.1,0.9,2.1,1.4,3.2c-1.3-3,0.9,2.1,0.9,2.2
					c1.1,2.7,2.2,5.5,3.2,8.2c1.9,5.2,3.7,10.5,5.4,15.8c1.7,5.6,3.4,11.2,4.7,16.9c0.3,1.4,0.6,2.9,0.8,4.3c-0.4-2.6-0.1,0,0,1.3
					c0,1.4,0.1,2.9-0.1,4.3c0.3-3.2-0.4,1-0.7,1.9c10-2.6,20.1-5.3,30.1-7.9c-4.7-4.3-9.3-8.8-13.7-13.5c-1.8-2-3.6-3.9-5.3-6
					c-1-1.2-2.1-2.4-3.1-3.7c-0.4-0.5-4.5-5.7-2.2-2.6c-7.5-9.7-14.1-20.1-19.9-31c-3-5.7-5.8-11.4-8.3-17.3c0.3,0.7,1.2,3.1,0-0.1
					c-0.6-1.5-1.2-3-1.7-4.5c-1.3-3.5-2.5-7-3.7-10.6c-3.8-11.7-6.5-23.7-8.3-35.8c0.6,4.3-0.1-1-0.2-1.6c-0.2-1.6-0.3-3.1-0.4-4.7
					c-0.1-1.6,0-3.1,0-4.7c-0.1,0.6-0.2,1.1-0.3,1.7c0.1-0.5,0.2-1,0.3-1.5c-0.3,0.5-0.5,1-0.8,1.5c1.1-1.8,1-1.7-0.3,0.2
					c-4,3.4,2.6-0.6-2.5,1.5c3.5-1.4-3.5-0.5,0.4-0.1c0.9,0,1.8,0,2.7,0.1c-2.5-0.4-2.7-0.4-0.6,0c2.2,0.7,4.4,1.2,6.6,2
					c-3.7-1.4,1.1,0.5,1.6,0.7c1.4,0.7,2.9,1.4,4.3,2.2c2.8,1.5,5.6,3.2,8.2,4.9c0.9,0.6,1.8,1.2,2.6,1.8c0.9,0.6,1.7,1.2,2.6,1.9
					c-1.5-1.2-1.5-1.1,0.1,0.2c4.5,3.9,8.8,7.8,12.8,12.2c2.2,2.4,4.3,4.8,6.2,7.4c-2.4-3.1,0.8,1.2,1,1.5c1.3,1.8,2.6,3.7,3.8,5.6
					c3.5,5.4,6.7,11.1,9.5,16.9c1.3,2.6,2.5,5.3,3.7,8c-1.4-3.2,0.8,2.1,0.9,2.2c0.9,2.2,1.7,4.4,2.5,6.6
					c5.2,14.4,9.4,29.3,11.6,44.4c-0.6-3.8,0.2,2,0.2,2.2c0.2,2.3,0.4,4.7,0.5,7c0.1,3.5,0.1,7-0.1,10.4c-0.1,1.7-0.2,3.5-0.5,5.2
					c0.5-3.7-0.7,3-0.8,3.7c-0.9,4-2.2,7.8-3.7,11.5c11-1.4,21.9-2.9,32.9-4.3c-9-11.8-17.1-24.4-24-37.6c-1.7-3.2-3.3-6.5-4.9-9.8
					c-0.7-1.5-1.4-3.1-2.1-4.6c-0.5-1-0.9-2.1-1.4-3.1c0.8,1.7,0.4,0.9-0.1-0.4c-2.8-6.8-5.3-13.6-7.5-20.6
					c-2.3-7.2-4.3-14.6-5.9-21.9c-0.8-3.6-1.5-7.1-2.2-10.7c-0.3-1.7-0.6-3.3-0.9-5c-0.1-0.8-0.3-1.7-0.4-2.5
					c-0.2-1.4-0.5-3.7-0.2-1.1c-1.9-14.7-2.6-29.7-1.8-44.5c0-0.8,0.1-1.6,0.1-2.4c0,0.4-0.8,2.8-0.1,1c0.7-2-0.4,0.7-0.5,0.8
					c-1.8,1.9-3.5,3-5.8,4.3c2.9-1.5-2.7,1.3-3.3-0.2c0,0.1,1.8,0.5,2,0.5c1.9,0.2-3.1-1.9,0.3,0c1.2,0.7,2.4,1.5,3.6,2.2
					c-2.7-1.6-0.1-0.1,1,0.9c2.7,2.3,5.2,4.9,7.6,7.5c0.5,0.6,3.6,4.3,2.5,2.8c-1.2-1.4,1.4,1.9,1.8,2.5c2,2.9,3.9,5.9,5.7,9
					c1.7,2.9,3.2,5.9,4.6,8.9c0.7,1.4,1.3,2.8,1.9,4.2c0.1,0.2,1.1,2.6,0.3,0.7c-0.8-1.9,0.4,1.1,0.6,1.5
					c5.5,13.8,9.5,28.1,13.1,42.5c2,8.1,3.9,16.2,5.4,24.4c0.4,2.2,0.8,4.4,1.1,6.6c0.1,0.7,0.8,5.3,0.5,2.8c0.6,4.4,1,8.9,1.4,13.3
					c0.3,4.8,0.5,9.6,0.5,14.4c0,1-0.1,1.9,0,2.9c0.1,2.3,0,0.2,0.3-0.9c-0.4,2-0.4,0.3,0.1,0.2c2.1-6,7.8-8,17.1-6.1
					c0.4,0.3,0.9,0.6,1.3,0.9c-0.3-0.6-1.1-1.2-1.5-1.7c-1.7-1.9,1.3,2-0.2-0.3c-1.1-1.6-2.3-3.2-3.4-4.8c-2.4-3.5-4.6-7.1-6.7-10.9
					c-2.1-3.7-3.9-7.5-5.7-11.4c-0.2-0.5-1.2-3.2-0.2-0.4c-0.4-1.1-0.8-2.1-1.2-3.2c-0.7-1.9-1.4-3.7-2-5.6
					c-2.7-8.4-4.7-16.9-5.9-25.6c-7.4,7.4-14.8,14.8-22.1,22.1c1,0.3,1.9,0.6,2.8,1c-2-0.9-2.1-0.9-0.2,0c1.8,0.9,3.5,1.8,5.2,2.9
					c0.4,0.3,4.9,3.3,3.1,2c-1.8-1.3,2.4,2.1,2.8,2.4c3,2.7,5.7,5.7,8.2,8.8c-2-2.4,0.1,0.2,0.8,1.2c1.1,1.7,2.2,3.4,3.3,5.1
					c2.1,3.5,3.8,7.1,5.6,10.7c0.9,2,1,2.2,0.3,0.7c0.5,1.1,0.9,2.2,1.3,3.4c0.9,2.3,1.7,4.5,2.4,6.8c2.9,8.6,5.2,17.4,7.5,26.2
					c2.4,9.1,13,15.5,22.1,12.6c9.4-3,15.1-12.4,12.6-22.1c-5.3-20.2-11-41.2-22.4-59c-11.1-17.2-26.4-30.7-46-37.4
					c-6-2-13.2,0.3-17.5,4.6c-5,5-5.5,10.9-4.6,17.5c2.6,18.7,8.8,36.7,17.7,53.3c4.7,8.7,10.3,17.2,16.8,24.8
					c9.1,10.7,26.1,13.9,36.5,3.1c8.4-8.7,7.9-21.3,7.4-32.5c-0.5-10.9-1.9-21.7-3.6-32.4c-3.1-18.8-7.7-37.4-13.4-55.6
					c-5.1-16.4-11.6-32.9-21.1-47.4c-9.6-14.6-23.8-31.6-41.8-35.5c-12.5-2.7-26.3,1.8-32.2,13.9c-4.6,9.4-4.1,20.7-4,31
					c0.1,18.7,2.3,37.5,6.1,55.8c8.3,39.9,25.6,78.3,50.4,110.6c4.5,5.9,10.1,9.7,17.9,8.6c7.6-1,12.2-6,15-12.9
					c12.6-30.8,5-66.5-5-96.9c-10-30.4-25.5-60.3-50.2-81.4c-11.9-10.2-25.8-19.4-41-23.8c-18.6-5.4-39.4,0.7-45.8,20.6
					c-2.5,7.9-1.6,16.2-0.5,24.2c1.1,8.2,2.4,16.4,4.2,24.5c3.4,14.8,8.5,29.1,14.6,43c13.1,30.2,33.1,57.8,57.4,79.9
					c10,9.1,26.1,5.4,30.1-7.9c4.2-14.3,0.9-28.9-3.2-42.8c-3.8-13.1-8.6-25.8-13.9-38.3c-9.9-23.2-22.4-45.2-37.5-65.5
					c-4.6-6.3-12.2-10.9-20.3-8.3c-7.4,2.4-13.4,9.2-13.2,17.4c1.2,48.3,5.6,98.7,38,137.1c4.9,5.8,15.5,6.9,21.8,2.8
					c7-4.5,10.1-12.2,8.3-20.3c-4.2-18.9-8.2-37.9-12.6-56.8c-3.9-17-8.9-34.3-17.9-49.4c-18.6-31.3-51.8-44.8-84.6-56.2
					c-6.8-2.3-14.8,1.1-18.9,6.5c-4.8,6.2-4.4,13.1-1.4,20c18.7,42.7,37.3,85.4,56,128.2c4.8,11,9.6,22,14.4,33
					c1.8,4.1,3.3,8.6,5.8,12.4c4.2,6.5,10.3,10.5,17.6,12.9c20.9,6.9,43.3,11.7,64.9,15.5c27.4,4.7,54.5,6.1,82,1.6
					c9.3-1.5,15.3-13.6,12.6-22.1c-8.5-26.3-16.9-52.6-25.4-78.9c-8.5-26.3-15.6-53.7-27.3-78.9c-2.6-5.5-5.6-10.8-8.4-16.1
					c-1.3-2.5-2.7-5-3.9-7.6c-0.4-0.7-1.7-4.1-0.5-1.1c-0.6-1.6-1.2-3.1-1.6-4.7c-0.5-1.6-0.8-3.2-1.2-4.8c0.7,3.3,0,0.2-0.1-0.9
					c-0.2-2.8-0.4-5.7-0.8-8.5c-1.2-8.6-4.9-15.9-12.3-20.9c-6.6-4.5-15.1-4.2-22.8-4.6c-7.2-0.3-14.5-0.7-21.7-1
					c-13.8-0.7-27.6-1.3-41.4-2c-15.4-0.7-30.9-1.5-46.3-2.2c-8.1-0.4-17.6-2.2-25.6-0.2c-12.6,3.2-20.4,17.7-13.1,29.4
					c5,8,16.3,11.8,24.6,6.5C400.5,439.8,404.3,428.9,398.9,420.3L398.9,420.3z"/>
			</g>
		</g>
		<g>
			<g>
				<path class="st12" d="M564.5,445c-1.3-1.7-2.5-3.4-3.8-5.2c-3.1-4.2-8-6.5-13.1-4.3c-4.3,1.9-8.1,7.5-6.1,12.4
					c15,37,30,74,45,110.9c7.5,18.5,15,37,22.5,55.5c3.7,9.1,7.5,18.2,11.1,27.4c3.3,8.3,6.5,16.8,7.2,25.8
					c2.6-3.4,5.1-6.7,7.7-10.1c-10.7,2.2-21.8-3.8-31.4-7.8c-11.2-4.7-22.6-8.7-34.3-11.9c-23.4-6.3-47.7-9.4-71.9-9.3
					c-13.5,0.1-13.5,21.1,0,21c24.3-0.1,48.3,3.2,71.6,10c11.5,3.4,22.6,7.8,33.6,12.4c12.3,5.1,24.6,8.6,37.9,5.8
					c4.2-0.9,8.1-5.8,7.7-10.1c-1.7-20.1-10.9-38.4-18.3-56.8c-7.5-18.5-15-37-22.5-55.5c-15.3-37.6-30.5-75.2-45.8-112.8
					c-6.4,2.7-12.8,5.4-19.2,8.1c1.3,1.7,2.5,3.4,3.8,5.2c3.4,4.6,9.1,6.8,14.4,3.8C565.2,456.8,567.9,449.6,564.5,445L564.5,445z"
					/>
			</g>
		</g>
		<g>
			<g>
				<path class="st12" d="M728.6,671.2c3.9,0,3.9-6,0-6C724.7,665.2,724.7,671.2,728.6,671.2L728.6,671.2z"/>
			</g>
		</g>
		<g>
			<g>
				<path class="st12" d="M770.4,660c20.2-12.2,44.5-14.9,67-7.8c-1.8-2.4-3.7-4.8-5.5-7.2c0.1,2.1,0.2,4.3,0.3,6.4
					c1.8-2.4,3.7-4.8,5.5-7.2c-30.9,8.3-61.8,16.1-92.9,23.4c-7.6,1.8-15.2,3.6-22.9,5.3c-6.9,1.6-15,4.7-22.1,3.9
					c-6.2-0.7-11.1-6.9-14.7-11.5c-4.4-5.6-7.9-11.9-10.3-18.5c-1.7,3.1-3.5,6.2-5.2,9.2c22.7-7.3,45.4-14.6,68-21.9
					c-3.1-3.1-6.2-6.2-9.2-9.2c-3,9.5-5.1,20.5-0.8,29.9c5,11.1,16.9,13.5,27.9,11.7c13.1-2.1,25.9-6.2,38.9-8.8
					c13.6-2.7,27.4-4.3,41.3-3.6c-0.7-4.9-1.3-9.8-2-14.7c-46.4,13.6-93.8,23.7-141.8,29.9c1.3,4.7,2.5,9.3,3.8,14
					c16.1-8.9,34.1-12.7,52.4-11.5c-0.7-4.9-1.3-9.8-2-14.7c-19.8,3.7-40.4,7.4-60.3,2.4c0.6,4.6,1.2,9.1,1.8,13.7
					c14.2-6.3,29.6-9.4,45.1-9.6c-1.3-4.7-2.5-9.3-3.8-14c-13.1,5.6-27.7,9.1-41.8,5.4c0.6,4.6,1.2,9.1,1.8,13.7
					c12.6-8.1,26.8-12.3,41.8-12.2c-1.3-4.7-2.5-9.3-3.8-14c-12.8,5.6-27.4,7.7-41.3,5.8c0.6,4.6,1.2,9.1,1.8,13.7
					c13.2-8.8,28.2-13.4,44-13.4c-0.7-4.9-1.3-9.8-2-14.7c-14.2,5.9-29.1,8.9-44.5,8.9c1.3,4.7,2.5,9.3,3.8,14
					c13.1-9.2,28.2-14.2,44.3-14.2c-1.3-4.7-2.5-9.3-3.8-14c-14.1,7.2-29.5,11.9-45.3,13.6c-6.4,0.7-10,7.8-5.3,12.8
					c1.4,1.4,1.4,2.6,1.3,4.5c1.2-2.2,2.5-4.3,3.7-6.5c-1.9,1-3.2,0.8-5.2,1.2c-0.5,0.1,0.1,0,0,0.1c-0.1-0.1-0.1-0.2-0.1-0.3
					c0-0.9-0.5-0.3-1.3,1.8c-3.4-0.9-6.8-1.8-10.3-2.7c2.1,3.9,4.8,7.4,8,10.4c6.4,6,15.5-1.5,11.8-9.1c-1.3-2.6-2.5-5.2-3.8-7.8
					c-4.2-8.7-17.2-1.1-13,7.6c1.3,2.6,2.5,5.2,3.8,7.8c3.9-3,7.9-6.1,11.8-9.1c-2.4-2.2-4.1-4.5-5.7-7.4c-1.7-3.2-7.1-5.1-10.3-2.7
					c-10.4,8-6.2,23.9,6.7,26.1c5.4,0.9,14.6-0.5,17.7-5.7c3.5-6-0.5-14.4-4.7-18.9c-1.8,4.3-3.5,8.5-5.3,12.8
					c18.6-1.9,36.2-7.1,52.9-15.6c6.8-3.5,3.4-14-3.8-14c-18.5,0-36.7,5.5-51.9,16.2c-5.8,4.1-4.1,14,3.8,14
					c16.6,0,33.1-3.1,48.5-9.5c7.4-3,7.1-14.7-2-14.7c-18.3-0.1-36.3,5.2-51.6,15.4c-4.7,3.1-5.2,12.8,1.8,13.7
					c18.3,2.5,35.9,0.1,52.9-7.4c7.1-3.1,3.1-14-3.8-14c-17.5-0.1-34.6,4.8-49.4,14.3c-5.3,3.4-4.6,12,1.8,13.7
					c18.3,4.9,36.4,0.4,53.3-6.9c7.1-3.1,3.2-14-3.8-14c-18.3,0.1-36,4.2-52.7,11.6c-6,2.7-4.1,12.2,1.8,13.7
					c22.7,5.7,45.7,1.8,68.3-2.4c8.7-1.6,6-14.2-2-14.7c-20.9-1.4-41.7,3.4-60,13.6c-6.1,3.4-3.8,15,3.8,14
					c49.3-6.4,98-16.5,145.8-30.4c8.3-2.4,6.4-14.3-2-14.7c-23.2-1.1-46.1,4-68.6,9.4c-6.1,1.5-20.7,7.7-25.5,1
					c-3.9-5.4-0.5-15.1,1.2-20.6c1.7-5.3-3.9-11-9.2-9.2c-22.7,7.3-45.4,14.6-68,21.9c-3.6,1.2-6.7,5.3-5.2,9.2
					c5.2,13.9,14.3,29.9,27.6,37.6c7.2,4.2,15.1,3.9,23,2.4c8.9-1.7,17.7-3.9,26.5-6c34.9-8.1,69.7-16.8,104.3-26.1
					c3.1-0.8,5.6-4,5.5-7.2c-0.1-2.1-0.2-4.3-0.3-6.4c-0.1-3.4-2.2-6.2-5.5-7.2c-26.1-8.3-55.1-4.8-78.6,9.3
					C754.5,652,762.1,665,770.4,660L770.4,660z"/>
			</g>
		</g>
		<g>
			<g>
				<path class="st13" d="M886.8,351.5c0.4-0.2,0.8-0.3,1.2-0.5c0.8,5.9,1.6,11.8,2.4,17.7c6.1-1.5,13.1-2.7,18.6-5.7
					c5.9-3.2,9.1-8.7,10.6-15.1c2.9-12.3,4.4-25.4-1.8-37c-3.6-6.8-14.7-5.3-16.4,2.1c-3.2,13.6-9.5,26-18.8,36.4
					c-7.7,8.6,5,21.4,12.7,12.7c11.3-12.7,19.5-27.8,23.4-44.4c-5.5,0.7-11,1.4-16.4,2.1c3.5,6.5,1.7,14.8,0.2,21.7
					c-0.7,3.3-0.7,4.9-3.2,5.9c-4.3,1.7-9.2,2.6-13.8,3.7c-9.9,2.4-7.7,17.7,2.4,17.7c4.6,0,8.3-1.5,11.5-4.8
					C907.7,356,895,343.3,886.8,351.5L886.8,351.5z"/>
			</g>
		</g>
		<g>
			<g>
				<path class="st13" d="M883.9,359.2c-1.4,0.7-2.8,1.4-4.2,2.1c-1.4,0.7-1.9,2.8-1.1,4.1c0.9,1.4,2.6,1.8,4.1,1.1
					c1.4-0.7,2.8-1.4,4.2-2.1c1.4-0.7,1.9-2.8,1.1-4.1C887.1,358.8,885.4,358.4,883.9,359.2L883.9,359.2z"/>
			</g>
		</g>
		<g>
			<g>
				<path class="st13" d="M878.5,230.7c-0.1,0.2-0.2,0.3-0.3,0.5c0.9-0.5,1.7-1,2.6-1.5c-1,0.1-3.9-9.1-4.2-9.8
					c-1-3.2-1.8-6.4-2.4-9.7c-0.7-3.8-6.4-2.2-5.8,1.6c1.2,6.7,3.2,13.6,6.5,19.6c1.8,3.3,5.9,6.5,8.8,2.3
					C885.8,230.6,880.6,227.5,878.5,230.7L878.5,230.7z"/>
			</g>
		</g>
		<g>
			<g>
				<path class="st13" d="M782.5,250.2c-3-16.8,0.5-34,9.6-48.4c2.1-3.3-3.1-6.3-5.2-3c-10,15.8-13.5,34.6-10.2,53
					C777.4,255.6,783.2,253.9,782.5,250.2L782.5,250.2z"/>
			</g>
		</g>
		<g>
			<g>
				<path class="st13" d="M777,226.9c0.8-6.7,2.5-13.3,5.2-19.5c1.5-3.5-3.7-6.6-5.2-3c-3.1,7.3-5.1,14.7-6,22.6
					C770.5,230.8,776.5,230.7,777,226.9L777,226.9z"/>
			</g>
		</g>
		<g>
			<g>
				<path class="st13" d="M921.9,242.6c7.4,5.4,8.6,16,3.6,23.4c-2.2,3.2,3,6.2,5.2,3c7.1-10.3,4.2-24.4-5.7-31.6
					C921.8,235.1,918.8,240.3,921.9,242.6L921.9,242.6z"/>
			</g>
		</g>
		<g>
			<g>
				<path class="st14" d="M830.6,425.2c-20.4,17.7-26.9,44.6-30.3,70.4c-3.9,29.6-4.1,59.7-5.6,89.5c0,0.9,0.7,1.4,1.5,1.5
					c10.4,1.1,20.7,2.3,31.1,3.4c1.4,0.2,1.8-1.7,1.1-2.6c-9.8-11-17.3-23.7-22.3-37.6c-0.9,0.4-1.8,0.8-2.7,1.2
					c4.8,7.2,6.8,15.3,6.1,23.9c0.4-0.5,0.7-1,1.1-1.4c-2.9,0.9-5.7,1.2-8.7,1.1c0.5,0.5,1,1,1.5,1.5c-0.1-4.6,3-8.5,7.7-8.9
					c-0.5-0.5-1-1-1.5-1.5c-0.1,7.1-4,12.9-10.4,15.9c0.6,0.8,1.2,1.6,1.8,2.4c4.3-4.8,11.1-5.9,16.6-2.5c0.3-0.9,0.5-1.9,0.8-2.8
					c-4.6,0.2-8.9-0.4-13.2-1.8c-0.1,1-0.3,2-0.4,2.9c4-0.5,7.4,0.4,10.6,2.9c0-0.9,0-1.7,0-2.6c-3.8,1.8-7.7,1.3-11-1
					c-0.1,0.9-0.2,1.8-0.4,2.7c5.9-1.8,11.8-2.6,18-2.3c1.2,0.1,1.8-1.3,1.3-2.3c-4.7-9.5-8.1-19.5-10.2-29.9
					c-1,0.3-1.9,0.5-2.9,0.8c3,11.7,6.1,23.4,9.1,35c0.8-0.5,1.7-1,2.5-1.5c-9.6-11.8-14.6-26.4-14.4-41.6c0-1.6-2.6-2.1-2.9-0.4
					c-2.1,11.5-2.7,23.1-1.9,34.8c0.1,1.9,3,2,3,0c-0.4-17.8,0.2-35.6,1.9-53.3c-1,0.1-2,0.3-2.9,0.4c2.3,13.9,4.7,27.7,7,41.6
					c0.3,1.9,3.2,1.1,2.9-0.8c-3.5-23.3-7-46.6-10.6-69.8c-0.3-1.7-3-1.3-2.9,0.4c0.7,12.3,1.4,24.7,2.1,37c0.1,1.9,2.8,1.9,3,0
					c1.4-18,2.9-35.9,4.3-53.9c-1,0-2,0-3,0c-0.2,10.2-0.4,20.4-0.6,30.6c0,1.9,3,1.9,3,0c0.5-26.9,8.1-53,22-76
					c1-1.7-1.6-3.2-2.6-1.5c-14.2,23.4-21.9,50.1-22.4,77.5c1,0,2,0,3,0c0.2-10.2,0.4-20.4,0.6-30.6c0-2-2.8-1.9-3,0
					c-1.4,18-2.9,35.9-4.3,53.9c1,0,2,0,3,0c-0.7-12.3-1.4-24.7-2.1-37c-1,0.1-2,0.3-2.9,0.4c3.5,23.3,7,46.6,10.6,69.8
					c1-0.3,1.9-0.5,2.9-0.8c-2.3-13.9-4.7-27.7-7-41.6c-0.3-1.8-2.8-1.2-2.9,0.4c-1.7,17.7-2.3,35.5-1.9,53.3c1,0,2,0,3,0
					c-0.9-11.4-0.3-22.7,1.8-34c-1-0.1-2-0.3-2.9-0.4c-0.2,16,5.1,31.3,15.3,43.7c1,1.2,2.9-0.1,2.5-1.5c-3-11.7-6.1-23.4-9.1-35
					c-0.5-1.9-3.3-1.1-2.9,0.8c2.2,10.7,5.7,20.9,10.5,30.6c0.4-0.8,0.9-1.5,1.3-2.3c-6.5-0.3-12.6,0.5-18.8,2.4
					c-1.3,0.4-1.4,2-0.4,2.7c4.4,3.1,9.3,3.3,14.1,1c1.1-0.5,0.8-2,0-2.6c-3.6-2.7-7.6-3.8-12.1-3.3c-1.6,0.2-2.1,2.4-0.4,2.9
					c4.6,1.5,9.2,2.1,14,1.9c1.5-0.1,2.1-2,0.8-2.8c-6.6-4.1-15.1-2.9-20.2,3c-1.2,1.3,0.3,3.1,1.8,2.4c7.4-3.4,11.8-10.4,11.9-18.4
					c0-0.8-0.7-1.6-1.5-1.5c-6.3,0.6-10.9,5.5-10.7,11.9c0,0.8,0.7,1.5,1.5,1.5c3.3,0.1,6.3-0.2,9.5-1.2c0.7-0.2,1-0.8,1.1-1.4
					c0.8-9.1-1.5-17.8-6.5-25.5c-0.9-1.3-3.3-0.5-2.7,1.2c5.1,14.4,12.9,27.5,23,38.9c0.4-0.9,0.7-1.7,1.1-2.6
					c-10.4-1.1-20.7-2.3-31.1-3.4c0.5,0.5,1,1,1.5,1.5c1.3-27.9,1.8-56.1,4.9-83.8c3-26.8,8.9-55.5,30.1-73.9
					C834.2,426,832.1,423.9,830.6,425.2L830.6,425.2z"/>
			</g>
		</g>
		<g>
			<g>
				<path class="st14" d="M982.3,468.2c-4.2,16.3-6.6,33.1-7.1,49.9c-0.4,15.8,3.4,36-10.5,47.4c0.8,0.6,1.6,1.2,2.4,1.8
					c3.6-7.7,12.7-7,19.8-6.1c1,0.1,1.7-1.1,1.4-1.9c-2.8-8.7-5.6-17.4-8.4-26.1c-0.6-1.8-3.4-1.1-2.9,0.8c1.9,7.5,3.5,15.1,1,22.7
					c1,0.3,1.9,0.5,2.9,0.8c4-14.9,3.9-30.3-0.4-45c-0.5-1.8-3.4-1.1-2.9,0.8c3,10.7,4.7,21.6,5.2,32.7c0.1,1.9,3.1,1.9,3,0
					c-0.5-11.4-2.3-22.5-5.3-33.5c-1,0.3-1.9,0.5-2.9,0.8c4.2,14.3,4.3,29.1,0.4,43.5c-0.5,1.9,2.3,2.6,2.9,0.8
					c2.7-8.1,1-16.2-1-24.3c-1,0.3-1.9,0.5-2.9,0.8c2.8,8.7,5.6,17.4,8.4,26.1c0.5-0.6,1-1.3,1.4-1.9c-8.2-1-18.3-1.1-22.4,7.6
					c-0.7,1.6,1,2.9,2.4,1.8c12.6-10.3,11.4-27.3,11.3-41.9c-0.1-19.1,2.3-38.1,7.1-56.7C985.6,467.1,982.7,466.3,982.3,468.2
					L982.3,468.2z"/>
			</g>
		</g>
		<g>
			<g>
				<path class="st14" d="M982.7,554.8c0.1,0.3,0-0.1,0.1,0.2c0-0.4,0,0.3,0-0.1c0,0-0.1,0.4,0,0.2c-0.1,0.1-0.1,0.3-0.2,0.4
					c0.1-0.2-0.1,0.1-0.2,0.1c0.2-0.2-0.1,0.1-0.2,0.1c0.2-0.1,0,0-0.1,0c-0.1,0-0.1,0,0,0c-0.2,0-0.2,0,0,0c-0.8-0.2-1.6,0.2-1.8,1
					c-0.2,0.7,0.3,1.7,1,1.8c2.9,0.6,5.5-2.7,4-5.4C984.3,551.6,981.8,553.1,982.7,554.8L982.7,554.8z"/>
			</g>
		</g>
		<g id="Calque_8">
			<g>
				<g>
					<path class="st4" d="M855.3,218.7c-7.3,3.3-14.8,5.9-22.6,8c-7.5,2-4.3,13.6,3.2,11.6c8.8-2.3,17.2-5.4,25.5-9.2
						C868.3,225.8,862.2,215.5,855.3,218.7L855.3,218.7z"/>
				</g>
			</g>
			<g>
				<g>
					<path class="st4" d="M853.2,222.9c-9,7.6-21.3,11.2-33.1,9.3c-7.6-1.2-10.8,10.4-3.2,11.6c16.3,2.6,32.1-1.7,44.7-12.4
						C867.6,226.4,859.1,218,853.2,222.9L853.2,222.9z"/>
				</g>
			</g>
			<g>
				<g>
					<path class="st4" d="M845.2,219.9c-5,2.8-10.2,3.9-16,3.8c0,7,0,14,0,21c10.1,0,20.2-0.1,30.2-0.1c8.4,0,12.5-8.8,9.1-15.8
						c-5.8-11.7-9.9-24-12.7-36.7c-2.4-10.7-17.2-9.2-20.2,0c-2.2,6.7-3.6,13.6-4.2,20.6c-0.3,3.1-0.2,6.3-0.4,9.4
						c-0.1,1-0.1,1.1-0.2,1.8c-0.1,0.6-0.3,1.2-0.5,1.8c0-0.2,0.1-0.3,0.2-0.4c0,0,3-1.5,2.9-1.2c0.1-0.5-0.4-1.5-0.4-2
						c-0.1-1,0-2.3,0.2-3.3c0.4-2.4,1.1-4.9,2-7.1c0.6-1.5,1.5-3,2.3-4.4c0.3-0.5,0.6-0.9,0.9-1.4c2-2.5,0.9-2.2-3.2,0.9
						c-1.8-0.5-3.5-1-5.3-1.4c-2.2-1-0.9-6.8-2.2-2c-0.4,1.5-0.9,3-1.4,4.4c-1,2.8-2.3,5.4-3.8,7.9c-3.1,5.2-7,9.8-11.7,13.7
						c-0.9,0.7-2,1.3-2.8,2.1c-2.3,2.3,3.9,5.2,4.9,3.3c0.6-1.1,0-4.3,0.2-5.5c0.2-1.5,0.6-3,1-4.4c1-3.6,2.3-7.1,3.7-10.6
						c0.6-1.5,1.9-6,3.3-6.9c-5.3-3-10.5-6-15.8-9.1c0.7,6.2,0.9,12.5-0.4,18.6c-0.1,0.7-2.3,8.7-2.4,8.6c0.1,0,5.5-2.9,5.6-1.5
						c0-0.1-1.5-1.3-1.8-1.6c-6.5-6.9-14.5-17.3-11.3-27.2c-6.4,0.8-12.8,1.7-19.2,2.5c4.6,9.6,9,19.2,13.7,28.7
						c4.1,8.3,9.6,16.5,17.7,21.2c19.1,11.1,43.6-0.5,58.6-13.4c4.3-3.7,3.8-11,0-14.8c-4.3-4.3-10.5-3.7-14.8,0
						c-8.1,7-25.6,17.3-35.5,8.3c-4.8-4.4-7.5-11.1-10.2-16.9c-3.8-7.9-7.5-15.8-11.3-23.7c-4.1-8.6-16.7-5.5-19.2,2.5
						c-3.3,10.3-1,21.1,4,30.4c2.4,4.4,5.5,8.4,8.6,12.4c3.1,3.9,6.2,7.8,10.7,10.1c5.1,2.6,11.1,3.1,16.2,0.2
						c4.7-2.7,7-7.5,8.7-12.4c3.5-10.1,4.6-21.4,3.3-32c-0.9-7.4-8.4-13.8-15.8-9.1c-8.8,5.6-12.5,17-15.6,26.5
						c-3.1,9.3-5.6,22.6,0.6,31.2c7.8,10.9,20.7,5,28.9-1.7c6.8-5.5,12.7-12.6,16.9-20.3c4.3-7.8,9.7-19.2,7.1-28.2
						c-3.4-12-18.2-14.3-25.8-4.9c-11.3,14-18.2,44.6,4,52.3c11.5,3.9,22.2-3.9,24.5-15.2c1-4.7,0.8-9.5,1.1-14.3
						c0.4-5.8,1.8-11.4,3.6-16.9c-6.8,0-13.5,0-20.2,0c3.2,14.5,8.3,28.4,14.8,41.7c3-5.3,6-10.5,9.1-15.8
						c-10.1,0-20.2,0.1-30.2,0.1c-13.5,0.1-13.5,20.7,0,21c9.4,0.2,18.3-2.1,26.6-6.7C867.7,231.5,857.1,213.4,845.2,219.9
						L845.2,219.9z"/>
				</g>
			</g>
			<g>
				<g>
					<path class="st4" d="M759.8,239c-0.1,0-0.3,0-0.4,0c-4.5-0.3-9,3.5-10.1,7.7c-2.2,8.1,4.9,16.4,13.4,14.1
						c9-2.5,8.5-11.5,8.6-18.8c0.2-13.7,2.2-27.2,5.9-40.4c2-7.2-5.2-15.8-12.9-12.9c-12,4.5-16.2,17.1-18.6,28.7
						c-2.7,12.7-2.6,25.4-0.1,38.1c5.8-3.4,11.7-6.8,17.5-10.2c-2.3-2.9-2.5-7.8-2.8-11.3c-0.4-5-0.7-10.1-0.6-15.1
						c0.1-4.1,0.6-8.3,2.3-12.1c2.2-4.9,6.7-8.3,10.8-11.6c5.7-4.6,2.8-13-2.1-16.5c-7.9-5.5-18.7-3.5-25.6,2.6
						c-6.4,5.8-9.1,14.8-10.7,23c-3.6,18-2.4,36.8,4,54c2,5.3,7.1,8.9,12.9,7.3c5.1-1.4,9.3-7.6,7.3-12.9c-4.2-11.3-6-23-5.1-35
						c0.4-5.5,1.4-11,3.2-16.2c0.5-1.6,1.2-3,2.1-4.4c0.3-0.5,1.2-0.6,1.5-0.8c-0.6,0.4-2.8-1.3-0.2,0.5c-0.7-5.5-1.4-11-2.1-16.5
						c-6,4.8-11.5,10.1-14.7,17.2c-3.1,6.7-4.3,14-4.5,21.3c-0.4,14.2,0.4,29.8,9.5,41.3c2.8,3.6,9,3.8,12.7,1.6
						c4.2-2.5,5.7-7.3,4.8-11.9c-1.5-7.7-1.8-15.7-0.6-23.5c0.6-4.1,1.7-8.1,3-12c0.5-1.4,1-2.9,1.6-4.1c1-2,2.6-2.4,0.1-1.4
						c-4.3-4.3-8.6-8.6-12.9-12.9c-2.5,9-4.2,18.1-5.3,27.4c-0.5,4.3-0.9,8.6-1.1,13c-0.1,2.2-0.2,4.3-0.2,6.5c0,1.2,0,2.5,0,3.7
						c0,2.2,0,2.5,0.1,0.8c1.6-2.1,3.2-4.2,4.8-6.3c-0.2,0.2-0.4,0.3-0.6,0.5c2.7-0.4,5.4-0.7,8.1-1.1c-0.2-0.1-0.3-0.1-0.5-0.2
						c2.4,2.4,4.9,4.9,7.3,7.3c-0.1-0.2-0.1-0.4-0.2-0.5c0,1.9,0,3.7,0,5.6c0-0.2,0.1-0.3,0.1-0.5c-3.4,2.6-6.8,5.1-10.1,7.7
						c0.1,0,0.3,0,0.4,0c5.7,0.4,10.5-5.1,10.5-10.5C770.3,243.5,765.5,239.5,759.8,239L759.8,239z"/>
				</g>
			</g>
			<g>
				<g>
					<path class="st4" d="M889.6,217.5c1,1.1,1.5,1.9,2.1,3.3c2.7-2.7,5.5-5.5,8.2-8.2c-7.1-5.4-14.7-10.5-21.2-16.6
						c-6.8-6.4-8.8-14.1-10.1-23.1c-1.1-7.6-12.6-4.4-11.6,3.2c1.5,10.4,4.4,19.7,12,27.3c7.3,7.4,16.5,13.3,24.8,19.6
						c5.4,4.1,10.3-3.5,8.2-8.2c-1-2.2-2.3-4-4-5.7C892.6,203.5,884.1,212,889.6,217.5L889.6,217.5z"/>
				</g>
			</g>
			<g>
				<g>
					<path class="st4" d="M859.8,153.9c-8.4,9.9-17.7,19-27.9,27.2c-4.7,3.8-9.6,7.3-14.6,10.6c-4.6,3-10.8,8.2-16.2,9
						c1.6,0,3.2,0,4.8,0c0,0-0.1,0-0.1,0c1.1,1.1,2.2,2.2,3.2,3.2c-0.2-0.4-0.4-0.7-0.6-1.1c0.4,1.5,0.8,3,1.2,4.5
						c-0.2,0.5-0.5,1-0.7,1.5c0.5-0.6,1.1-1.1,1.7-1.6c1.1-1,2.3-1.9,3.4-2.9c1.9-1.6,3.9-3.2,5.9-4.7c4.5-3.4,9.2-6.7,13.9-9.8
						c9.5-6.2,19.4-11.8,29.6-16.7c-3.6-4.7-7.3-9.4-10.9-14.1c-21.4,19.9-47.5,33.9-75.8,41.1c3.7,3.7,7.4,7.4,11.1,11.1
						c3.8-9.7,16.4-15.5,24.9-19.9c11.1-5.8,22.8-10.2,34.9-13.5c-2.3-5.5-4.6-11-6.9-16.4c-21.6,15.8-46.1,26.2-72.4,30.7
						c3.7,2.1,7.4,4.2,11.1,6.3c-0.1-0.4-0.1-0.9-0.2-1.3c0,1.6,0,3.2,0,4.8c0.3-2.1,7-4.5,9-5.6c4.7-2.4,9.4-4.6,14.3-6.5
						c9.8-3.9,19.9-7,30.1-9.4c-1.6-5.8-3.2-11.6-4.8-17.4c-20.5,8.4-42,14.3-64,17.4c2.3,5.5,4.6,11,6.9,16.4
						c14.6-10.2,30.4-18,47.5-23c-2.3-5.5-4.6-11-6.9-16.4c-20.7,9.4-41.7,18.6-64.4,21.8c2.3,5.5,4.6,11,6.9,16.4
						c15.2-8.5,31.1-15.2,47.8-20.2c9.3-2.8,8.1-18.5-2.4-17.7c-17.1,1.4-33.5,6.7-47.8,16.3c3,5.2,6.1,10.4,9.1,15.5
						c15.7-12,31.6-23.6,47.7-34.9c12.9-9,29.4-22.3,46.2-17.1c-0.7-5.5-1.4-11-2.1-16.4c-23.5,11.4-46.5,23.8-69,37.1
						c3,5.2,6.1,10.4,9.1,15.5c12.5-8,24.9-15.9,38-22.8c11.5-6.1,25.5-13.8,38.9-11.1c-2.2-2.9-4.4-5.8-6.6-8.7
						c0,3.1-8.1,6.9-10.4,8.3c-5.5,3.3-11.2,6.2-17.1,8.6c-5.8,2.3-11.9,4.2-18,5.7c-1.3,0.3-9.3,2.3-9.7,1.4
						c-1.1,4.1-2.2,8.2-3.2,12.3c24.3-13.2,51.1-21.8,78.6-24.8c-2.1-5.1-4.2-10.2-6.4-15.4c-7.9,7.3-16.4,13.7-25.6,19.3
						c-4.4,2.7-8.9,5.2-13.6,7.5c-2.6,1.3-5.2,2.5-7.8,3.6c-0.9,0.4-1.7,0.8-2.6,1.1c-0.6,0.2-1.2,0.4-1.8,0.6
						c-1.8,0.4-0.8,0.8,2.9,1.2c0,4.2,0,8.5,0,12.7c15.7-15.1,36.9-22.4,58.5-20.7c-2.6-4.5-5.2-9-7.8-13.5
						c-5.4,7.7-11.9,14.6-19.3,20.5c-3.4,2.7-7,5.1-10.7,7.3c-2.8,1.7-7.7,5.5-11.1,5.1c1.5,0.4,3,0.8,4.5,1.2c0,0,0,0.1,0.1,0.1
						c0,4.2,0,8.5,0,12.7c1.4-1.7,3.9-5.6,6.7-3.9c1.5,0.9,1.6,2.9,0.9,4.3c1.8-1.4,3.6-2.8,5.4-4.1c-3,1.1-4.9,1-7.9-0.2
						c0,5.8,0,11.6,0,17.4c4-0.6,7.4-1.9,11.1-3.5c4.4-2,5.5-8.4,3.2-12.3c-2.7-4.6-7.9-5.2-12.3-3.2c-2.1,0.9-4.5,1.4-6.8,1.7
						c-3.8,0.6-6.6,5.1-6.6,8.7c0,4.2,2.9,7.2,6.6,8.7c6.7,2.6,18.5,3,22.9-3.9c3.9-6.2,3.6-14.9,0.2-21.2
						c-3.5-6.4-10.3-10.2-17.5-10.5c-7.7-0.3-13.8,3.7-18.5,9.4c-3.3,3.9-3.5,8.8,0,12.7c9.5,10.8,27.8-2.7,36.3-8.9
						c11.1-8.1,20.5-17.7,28.4-29c4.2-6-1.6-13.1-7.8-13.5c-26.2-2-52.4,7.8-71.2,26c-3.5,3.4-3.4,9.4,0,12.7
						c5.4,5.3,12.3,4.5,18.8,1.8c6.8-2.8,13.5-5.9,19.9-9.5c12.7-7.1,24.5-15.8,35.2-25.6c5.4-4.9,1.5-16.2-6.4-15.4
						c-30.8,3.4-60.4,12.5-87.7,27.3c-4.3,2.3-5.5,8.2-3.2,12.3c9.2,16.4,35,6.4,48.1,1.2c8.7-3.4,17.1-7.6,25-12.7
						c7.8-5.1,15.8-11.3,15.7-21.5c-0.1-3.7-2.7-7.9-6.6-8.7c-17-3.4-32.7,2.8-47.8,10.3c-14.9,7.4-29,16.4-43.1,25.4
						c-9.7,6.2-0.9,21.5,9.1,15.5c22.5-13.3,45.5-25.7,69-37.1c7.3-3.6,4.8-14.3-2.1-16.4c-20-6.2-39.2,4.5-55.3,15.5
						c-17.8,12.3-35.3,25.1-52.5,38.3c-3.9,2.9-5.9,7.7-3.2,12.3c2.3,4,8.3,5.9,12.3,3.2c11.6-7.8,24.7-12.7,38.7-13.8
						c-0.8-5.9-1.6-11.8-2.4-17.7c-18.1,5.4-35.6,12.8-52.1,22c-3.9,2.2-5.4,7.2-3.7,11.2c2,4.4,6,5.9,10.6,5.2
						c24.2-3.4,46.6-13.6,68.7-23.6c9.4-4.3,2.7-19.3-6.9-16.4c-18.5,5.5-36,13.8-51.8,24.8c-8.7,6.1-3.1,17.9,6.9,16.4
						c22-3.2,43.4-9,64-17.4c4.5-1.8,7.7-6,6.3-11.1c-1.3-4.8-6.3-7.4-11.1-6.3c-13.7,3.2-26.9,7.8-39.8,13.5
						c-11.5,5.1-28.6,11.3-26,26.7c0.9,5.1,6.7,7,11.1,6.3c27.6-4.8,54.1-16,76.7-32.6c7.8-5.7,3.6-19.3-6.9-16.4
						c-14.7,4-28.9,9.7-42.3,17c-12.7,7-24.6,15.1-30.1,29c-2.6,6.7,5,12.6,11.1,11.1c31.3-7.9,60.1-23.7,83.7-45.7
						c7.9-7.3-2.1-18.3-10.9-14.1c-14.6,7-28.4,15.2-41.4,24.9c-6,4.4-13,9-17.7,14.7c-5.4,6.6-4.8,17.8,4.6,20.5
						c7.5,2.1,14.8-3.4,20.8-7c6.3-3.8,12.3-8,18.2-12.5c12.3-9.4,23.6-20,33.7-31.8c3.2-3.7,3.6-9.1,0-12.7
						C869.3,150.7,863,150.2,859.8,153.9L859.8,153.9z"/>
				</g>
			</g>
			<g>
				<g>
					<path class="st4" d="M847.7,135.9c0.1,0.5-0.5,1-0.5,1.3c-0.1-0.7,1.2-1.7,1.6-2c0.7-0.5,2.6-0.7,4.7-0.6
						c5.9,0.4,12,2.9,17.6,4.7c12.5,4.1,23.7,9.5,33.3,18.6c18.4,17.5,32.8,40.1,42.1,63.7c6.7-3.9,13.4-7.8,20.1-11.7
						c-18-16.6-35-34-51.2-52.3c-4.8,6.3-9.7,12.6-14.5,18.8c10.9,4.9,19.2,12.4,24.6,22.9c0.5,1,2.1,7,2.8,7.4
						c-1.2-0.8,8.9-7.6,2.6-3.8c1.6-0.9,4.6,0.2,2.3-0.8c1.3,0.6-1.7-1-1.8-1.1c1.2,1-0.6-0.6-0.9-1.1c-2.1-2.9-3.2-5.6-4-9.1
						c-5.9,4.5-11.8,9-17.6,13.6c0.8,0.4,1.6,0.9,2.3,1.4c1.2,0.9,1.5,1.1,1,0.5c0.7,0.6,1.3,1.2,2,1.9c-0.3-0.2-0.5-0.5-0.6-0.9
						c-0.4-1.2-0.2-2.4,0.6-3.6c0.4-0.6,0.8-1,1.4-1.3c-1.2,0.7-1.3,0.7-0.2,0.2c-1.3,0.3-1.5,0.4-0.7,0.2c0.8-0.1,0.6-0.2-0.7-0.1
						c0.6-0.1,1.2,0.1,1.6,0.5c-1.4-0.7-1.9-1-3.2-2.5c-1.7-2-3.6-5.9-5-8.8c-4.5,5.9-9,11.8-13.6,17.6c0.9,0.3,2.3,1.1,3.2,1.8
						c0.6,0.5,1.1,1.2,1.7,1.5c0.9,0.6,0.7,2.5,0.7-0.1c0.5-2,1.1-4,1.6-6.1c0.2-0.3,0.4-0.6,0.6-0.8c1.8-1,3.5-2.1,5.3-3.1
						c0.2-0.1,1.6,0,1.8,0.2c-0.4-0.4-1.9-0.6-2.5-0.9c-0.8-0.3-2.7-1.3-3.8-2c-3.2-1.7-5.9-3.5-8.5-5.8c-2.5-2.2-5.3-5-7.1-7.4
						c-1.2-1.6-2.3-3.3-3.3-5c-0.5-0.9-1-1.7-1.4-2.6c-0.7-1.3-0.5-0.8-0.8-1.5c-0.2-0.7-0.2-0.8-0.2-0.3c0,0.5,0,0.5,0-0.3
						c0.1-2.4-1.3-1.4-4.2,3c-4.8,2.1-6,3.4-3.5,3.8c1.5,0.9,3.9,1,5.6,1.7c2.4,0.9,6.1,3,8.7,4.9c2.3,1.6,5.2,4.4,7.2,7
						c0.9,1.2,4.1,5.4,4,6.5c0.5-2,1.1-4,1.6-6.1c2-2.7,4.3-3.8,7-3.5c0.9,0.5,0.7,0.5-0.5-0.2c-1.5-1.4-3.7-2.3-5.4-3.5
						c-3.1-2.2-6-4.8-8.7-7.5c-2.3-2.3-4.6-4.8-6.6-7.4c-1.8-2.3-4.6-8.1-5.7-9c-0.9,6.1-3.4,9-7.4,8.7c1.3,0.4,1.6,0.5,0.9,0.3
						c1.7,1,3.6,1.8,5.4,2.9c2.7,1.6,5.1,3.2,7.4,5.2c5.9,5.1,10.4,10.9,14,17.8c1.4-5.5,2.9-10.9,4.3-16.4c1.9-1,3.4,0.6,0.8-0.9
						c-1.7-1-1.1-0.7-2.6-1.9c-2.5-2.1-4.8-4.7-6.8-7.3c-2.3-3-4.3-6.4-5.8-9.8c-0.6-1.2-1-2.5-1.5-3.7c-0.2-0.6-0.4-1.2-0.5-1.8
						c0.1,1.1,0.1,0.9,0.1-0.6c-0.5,4-2.9,6.1-7,6.2c0.5,0.2,1,0.3,1.4,0.5c0.6,0.6,2.7,1.5,3.8,2.1c2.7,1.6,5,3.2,7.2,5.2
						c5,4.6,8.5,9.4,11.4,15.5c3.5-6,6.9-12,10.4-18.1c-2.8-0.2-6.6-1.4-9.1-3.3c-1.7-1.3-3-2.6-4-4.2c-0.4-0.6-0.8-1.3-1.1-1.9
						c-1.1-2.3-1.4-0.7-0.9,4.8c-0.3,0.5-3.3,2.7-3.3,2.7c0,0.2,0.7-0.1,2,0.1c-2-0.3,0.6,0.4,1.3,0.6c1.5,0.5,3.5,1.6,5.1,2.8
						c2.6,2,5.6,5.3,6.6,8.5c0-2.1,0-4.3,0-6.4c-0.1,0.5-0.1,1-0.2,1.5c1-1.8,2.1-3.5,3.1-5.3c-0.2,0.2-0.4,0.5-0.7,0.7
						c1.8-1,3.5-2.1,5.3-3.1c0.2-0.1,3.8,0.2,3.8,0.2c0,0-2.9-1.7-3.3-1.9c-1.6-1-2.7-1.9-4.1-3.2c-3.1-2.9-5.2-5.9-7.2-9.6
						c-3.5,6-6.9,12-10.4,18.1c3.2-0.1,1.8-1.1-4.1-2.9c7.9,13.2,28.7,1.2,20.7-12.1c-3.4-5.7-9.8-9.8-16.6-9
						c-9,1.1-15,9.4-10.4,18.1c3.5,6.7,8.4,12.7,14.4,17.4c6.5,5.1,14.9,10.9,23.5,8.2c12.4-3.9,10.5-17.8,4.8-26.5
						c-4.2-6.4-10-12-16.9-15.5c-7-3.6-14.7-5.6-22.5-3.6c-9.5,2.4-15.5,11.6-13.3,21.3c3.8,16.6,21.8,26.9,37.7,27.9
						c9.7,0.6,14.1-10.5,10.4-18.1c-5.5-11.3-14.2-20.9-24.7-27.8c-5.5-3.6-12.2-7.3-18.9-7.4c-8.2-0.1-15.4,5.3-17.4,13.3
						c-3.3,13,6.4,27.9,14.2,37.5c9.1,11.1,23.1,21.5,37.6,13.7c5.9-3.2,7.2-10.8,4.3-16.4c-5.9-11.4-14.6-20.9-25-28.3
						c-10.3-7.4-28.3-16.4-37.4-2.2c-7.9,12.5,4.3,27.2,12.2,36.3c3.9,4.5,8.3,8.6,13,12.2c5.3,4.2,11.1,8.8,17.9,10.2
						c7.4,1.6,15.2-0.8,18.9-7.8c4.2-7.9,0.1-16.4-4.4-23c-6.6-9.8-15.7-17.8-26.6-22.5c-6.1-2.7-13.5-5.7-20.3-4.2
						c-8.3,1.8-13,9.2-12.9,17.4c0.2,12,10.3,24.6,18.7,32.4c9,8.3,24.6,19.8,37.5,15.6c11.4-3.7,12-16.5,6.1-25.2
						c-4.7-7-11.3-11.5-19.2-14.4c-4.4-1.6-10,0.7-12.6,4.3c-3,4-3.2,8.8-0.9,13.3c3.6,7.4,8.2,15,15.5,19.2
						c7.3,4.2,16.4,4.6,23.9,0.7c8-4.2,12.6-12.8,10.7-21.7c-1.8-8.6-8.7-14.3-15.9-18.4c-9.4-5.4-19.9,3.5-17.6,13.6
						c2.6,11.8,10.5,23.4,22.2,27.6c13.3,4.7,27.5-4.5,26.6-19.1c-0.7-11.3-7.3-22.2-14.3-30.8c-6.6-8.2-15.3-14.9-25-19.3
						c-12.2-5.5-23.9,8.2-14.5,18.8c16.1,18.3,33.2,35.8,51.2,52.3c3.9,3.6,9.8,4.6,14.5,1.9c4.2-2.5,7.4-8.7,5.5-13.6
						c-12.5-31.6-32-63.3-59.7-83.7c-7.3-5.4-15.5-9.1-23.9-12.4c-8-3.1-16.5-6.1-25-7.6c-10-1.8-20-0.9-28.1,5.8
						c-7.4,6.1-10.8,15.5-8.4,24.9C828.4,157.2,851.6,150.9,847.7,135.9L847.7,135.9z"/>
				</g>
			</g>
			<g>
				<g>
					<path class="st4" d="M892.3,156c4.2,0.9,7.1,3.5,8.1,7.7c1.8,7.5,13.4,4.3,11.6-3.2c-1.9-7.9-8.5-14.4-16.5-16.1
						c-3.2-0.7-6.5,0.9-7.4,4.2C887.2,151.6,889.1,155.3,892.3,156L892.3,156z"/>
				</g>
			</g>
			<g>
				<g>
					<path class="st4" d="M934.3,223.4c5.3,7,10.6,14,15.9,21c5.9,7.7,15.8,12.1,23.9,4.5c3.1-2.9,4.3-9.1,1.6-12.7
						c-3.6-4.8-7.2-9.6-10.8-14.3c-3.4-4.5-9-6.9-14.4-3.8c-4.6,2.7-7,9.7-3.8,14.4c10.3,14.7,21.3,28.9,33.1,42.4
						c10.7,12.3,23.2,30.4,41.8,26.8c8-1.6,9.8-12.2,4.6-17.5c-7.4-7.7-16.9-5.3-25.3-1c-6.1,3.1-13.5,0.5-20,0.1
						c-9-0.5-21.4,1.9-22.1,12.9c-0.3,4.6,1.8,8.3,4.5,11.9c0.6,0.8,2.5,4.2,3.6,4.9c0.3,0.2,0.3-0.8,0.2-0.7c3-1.7,6-3.5,9.1-5.2
						c-6-0.6-11.4-13.7-13.4-19.8c-1.8-5.6,0.8-8.9,3-14c3.1-7.2,3.5-14.5-0.2-21.6c-5.5,4.2-11,8.5-16.5,12.7
						c4.4,4.8,8.8,9.7,13.2,14.5c2,2.2,4,4.4,5.9,6.5c1.1,1.2,2.3,2.4,3.3,3.6c1.9,2.4,0.1,1.9,0.8-0.8c4.3-2.4,8.6-4.9,12.9-7.3
						c-8.3-1.4-15.2-4.5-21.9-9.6c1.3,4.8,2.5,9.6,3.8,14.4c2.7-4.6,4-9.4,4.1-14.7c0.2-13.5-20.8-13.5-21,0c0,1.9-0.2,2.5-1.2,4.1
						c-3.1,5.3-0.7,10.9,3.8,14.4c7.8,6,17.2,10.1,26.9,11.7c5.6,1,11.3-1.4,12.9-7.3c2.8-10.1-3.9-17.1-10.2-24
						c-6.1-6.8-12.3-13.5-18.4-20.3c-8.3-9.2-21.8,2.5-16.5,12.7c-0.1-1.4-0.1-1.2-0.1,0.7c-0.2,0.4-0.4,0.8-0.5,1.2
						c-0.4,1.5-1.2,2.8-1.9,4.1c-1.5,3.2-3,6.5-3.7,10c-1.6,8.7,1.7,16.7,5.2,24.5c5.8,12.9,14.7,23.9,29.6,25.3
						c3.8,0.4,7.1-2.3,9.1-5.2c3.2-4.7,3.6-10.9,1.7-16.2c-0.9-2.5-2.1-4.7-3.6-6.8c-0.8-1.1-1.6-2.4-2.6-3.3c-1-1-0.8-2.3-0.9-0.4
						c-1,2.5-2.1,4.9-3.1,7.4c-1.6,1.7,0.8,0.6,2.6,0.6c1.6,0,3.2,0.2,4.8,0.4c3.7,0.4,7.5,1.1,11.3,1.1c4.5-0.1,8.9-0.9,13-2.8
						c1-0.4,4.3-1.5,4.6-2.4c0.5-1.4,0.3,0.6-1.7-1.4c1.5-5.8,3.1-11.7,4.6-17.5c-2.9,0.6-9.2-7.9-10.8-9.7
						c-4.8-5.2-9.6-10.6-14.2-16c-9.2-10.9-18-22.2-26.2-33.9c-6,3.5-12.1,7.1-18.1,10.6c3.6,4.7,7.3,9.5,10.8,14.3
						c0.5-4.2,1.1-8.5,1.6-12.7c-0.3,0.3-0.6,0.5-0.8,0.8c1.5-0.9,3.1-1.8,4.6-2.7c-0.3,0.1-0.7,0.2-1,0.3c1.9,0,3.7,0,5.6,0
						c0.2,0.4,0.2,0.5,0,0.3c-0.6-0.6-1.1-1.2-1.5-1.9c-1.5-2-3-4-4.5-6c-3-4-6.1-8-9.1-12c-3.4-4.5-9.1-6.9-14.4-3.8
						C933.6,211.7,930.8,218.9,934.3,223.4L934.3,223.4z"/>
				</g>
			</g>
			<g>
				<g>
					<path class="st4" d="M945.2,268.3c1.4,5.9-2.7,9.3-4.1,14.6c-1.3,4.6-0.1,9.6,2.5,13.5c5.2,8.2,16.5,13.8,16.3,24.7
						c3.4-1.4,6.8-2.8,10.2-4.2c-8.6-6.9-14.2-16-16.3-26.9c-1.5-7.6-13-4.4-11.6,3.2c2.4,12.7,9.3,24.2,19.4,32.2
						c3.9,3.2,10.1,1.3,10.2-4.2c0.3-11.6-7.4-19.3-14.9-27.1c-1.6-1.6-3.8-3.8-4.2-6.1c-0.5-2.6,1.6-4.7,2.6-6.9
						c2.4-5.1,2.7-10.5,1.5-15.9C955.1,257.6,943.5,260.8,945.2,268.3L945.2,268.3z"/>
				</g>
			</g>
		</g>
		<g id="Calque_7">
			<g>
				<g>
					<path class="st1" d="M861.4,138.9c10.8,0,21.4,4.8,27.9,13.6c1.7-3,3.5-6,5.2-9c-11.1,0-21.3-4.5-29-12.5
						c-0.9,3.3-1.8,6.7-2.6,10c1.8-0.4,3.4-0.2,4.8,1.1c5.8,5,14.3-3.4,8.5-8.5c-4.8-4.1-10.3-5.6-16.5-4.2c-4.5,1.1-5.7,6.9-2.6,10
						c9.8,10.2,23.3,15.9,37.5,16c4.2,0,8-5.3,5.2-9c-9.1-12.3-22.9-19.6-38.3-19.6C853.7,126.9,853.7,138.9,861.4,138.9
						L861.4,138.9z"/>
				</g>
			</g>
			<g>
				<g>
					<path class="st1" d="M908.4,165.9c7.7,0,7.7-12,0-12C900.7,153.9,900.7,165.9,908.4,165.9L908.4,165.9z"/>
				</g>
			</g>
			<g>
				<g>
					<path class="st1" d="M1046.5,603.4c-2.2,2.9-4.9,5.3-8.1,7.2c-1.5,0.9-3.2,1.8-4.9,2.3c-0.6,0.2-1.2,0.4-1.8,0.4
						c1,2.4,1.7,3,2.2,1.7c0.6-0.2,2.1-2.5,2.8-3c1.4-1.1,3.1-1.8,4.8-2.3c1.4-0.4,3.4,0,4.6-0.4c0.6-5.7-0.4-7.6-3-5.4
						c-0.9,0.5-1.8,1.1-2.8,1.6c-6.7,3.9-0.6,14.3,6.1,10.4c4-2.3,8.8-4.6,9.3-9.8c0.4-4.6-3.2-7.7-7.4-8.5
						c-8.8-1.7-19.2,3-24.1,10.4c-5.6,8.4-0.1,18.8,10.4,17c9.1-1.6,17-8.3,22.4-15.5C1061.4,603.3,1051,597.3,1046.5,603.4
						L1046.5,603.4z"/>
				</g>
			</g>
			<g>
				<g>
					<path class="st1" d="M1066.7,566.2c7.7-6.9,10.8-18.2,13.4-27.8c3-11.2,4.6-22.8,4.9-34.4c0.2-7.7-11.8-7.7-12,0
						c-0.3,9.9-1.6,19.7-4,29.4c-2.1,8.1-4.2,18.5-10.7,24.3C1052.4,562.8,1060.9,571.3,1066.7,566.2L1066.7,566.2z"/>
				</g>
			</g>
			<g>
				<g>
					<path class="st1" d="M825.3,385.4c-7.1,8-12.8,16.9-17,26.8c-1.3,3-0.9,6.4,2.2,8.2c2.5,1.5,6.9,0.8,8.2-2.2
						c3.8-8.9,8.7-17.1,15.1-24.4C838.9,388.1,830.4,379.6,825.3,385.4L825.3,385.4z"/>
				</g>
			</g>
		</g>
		<g>
			<g>
				<path class="st12" d="M613.9,635.5c-1.4,0.6-2.6,1.4-3.8,2.3c-2.3,1.7-4.7,3.4-6.7,5.5c-3.1,3.2-5.5,8.2-5.3,12.7
					c0.2,1.6,0.4,3.2,0.6,4.8c0.9,3,2.4,5.7,4.6,7.9c0.2,0.3,0.5,0.6,0.7,0.8c1.2,1.1,2.8,2.3,4.2,3.2c1.8,1.2,3.9,1.9,5.9,2.6
					c2.4,0.8,4.8,0.9,7.2,0.3c2.4-0.1,4.6-0.8,6.7-2.1c3.7-2.2,7.3-6.5,8.3-10.8c1-4.6,0.8-9.8-1.8-13.9c-0.9-1.2-1.9-2.4-2.8-3.6
					c-2.2-2.2-4.9-3.8-7.9-4.6c-0.1,0-0.3-0.1-0.4-0.1c1.4,0.6,2.9,1.2,4.3,1.8c-0.6-0.2-1-0.5-1.5-0.9c1.2,0.9,2.4,1.9,3.6,2.8
					c-0.3-0.3-0.6-0.6-0.9-1c0,8.5,0,17,0,25.5c0.8-0.8,1.6-1.5,2.4-2.2c-1.2,0.9-2.4,1.9-3.6,2.8c1.4-1.1,2.8-2,4.4-2.7
					c2.1-1.1,3.8-2.7,5.1-4.6c1.6-1.7,2.7-3.8,3.2-6.1c0.8-2.4,0.9-4.8,0.3-7.2c-0.1-2.4-0.8-4.6-2.1-6.7c-2.5-3.8-6.2-7.2-10.8-8.3
					c-1.6-0.2-3.2-0.4-4.8-0.6C619.8,633,616.7,633.9,613.9,635.5L613.9,635.5z"/>
			</g>
		</g>
		<g>
			<g>
				<path class="st12" d="M527,451.8c5.2,9,14.1,14,24,16.2c3.3,0.7,6.6,1.2,9.8,2.2c-0.1,0,2.3,0.6,2.4,0.7c-0.7-2.9-3.2-0.4-1-0.3
					c1.7,0,0.8,0.7-0.4-0.6c0.5,0.4,1,0.9,1.4,1.4c0.9,1,0.6,0.6-0.8-1c0.3,0.8,1,1.7,1.4,2.4c0.6,1.1,0.5,2.6-0.2-0.5
					c0.4,1.8,1.2,3.6,1.6,5.5c1,4.1,1.7,8.2,2.6,12.4c2,9.4,5.1,18.6,8.6,27.5c7.4,18.7,16.8,36.5,25.4,54.6c2,4.1,3.9,8.3,5.7,12.5
					c1.4,3.3,0.5,1.1,0.2,0.4c0.4,1.1,0.9,2.1,1.3,3.2c1.1,2.6,2.1,5.3,3,8c3.2,9.1,5.7,18.4,8.2,27.8c5.7,21.7,11.3,43.6,23,63
					c4.8,8.1,16.4,11.8,24.6,6.5c8.1-5.2,11.6-16,6.5-24.6c-2.3-3.9-4.4-7.8-6.3-11.9c-1.5-3.2-0.5-1-0.2-0.3
					c-0.4-1-0.8-2.1-1.2-3.1c-1-2.6-2-5.3-2.8-7.9c-3.1-9.1-5.5-18.5-7.9-27.8c-5.1-19.6-11.2-38.3-19.6-56.7
					c-3.9-8.6-8.1-17-12.3-25.5c-2.1-4.4-4.3-8.7-6.3-13.1c-1-2.1-1.9-4.1-2.9-6.2c-0.5-1-0.9-2.1-1.4-3.1c-0.5-1-1.5-3.5-0.5-1.2
					c-3.7-8.9-6.9-18-9.3-27.3c-2.3-9.4-3.5-18.7-7.5-27.6c-4.8-10.8-13.8-18.1-25-21.5c-3.8-1.2-7.8-1.7-11.6-2.6
					c-1.6-0.4-7-2.8-2.3-0.5c-1.2-0.6-2-1.8,0.9,1c-2.4-2.3,1.9,3.4,0.1,0.1c-4.7-8.2-16.5-11.7-24.6-6.5
					C525.2,432.5,522,443.1,527,451.8L527,451.8z"/>
			</g>
		</g>
		<g>
			<g>
				<path class="st12" d="M671.6,667.7c-9.6-8-18.7-16.1-30.6-20.4c-5.3-1.9-11-2.3-16.6-3.3c-6.2-1.1-12.4-2.3-18.6-3.6
					c-24-5-47.8-11.3-72.1-15.1c-9.3-1.5-19.8,2.4-22.1,12.6c-2,8.6,2.6,20.6,12.6,22.1c23,3.7,45.6,9.5,68.4,14.4
					c11.4,2.4,23,3.8,34.3,6.3c1,0.2,2.1,0.5,3.1,0.8c4.3,1.2-1.3-1,0.7,0.2c2,1.2,4,2.2,5.9,3.5c0,0,3.6,2.8,1.9,1.3
					c-1.8-1.4,1.8,1.6,1.8,1.5c2,1.7,4,3.4,6,5.1c7.2,6,18.5,7.6,25.5,0C677.7,686.5,679.3,674.1,671.6,667.7L671.6,667.7z"/>
			</g>
		</g>
	</g>
	<g id="Calque_3">
		<g>
			<g>
				<path class="st15" d="M770.3,296.2c4.5,29.3,14.2,61.3,42.3,76.1c12.9,6.7,27.3,8,41,3.1c13.4-4.7,25.9-12.7,36.3-22.3
					c11.4-10.6,20.1-24,23.3-39.4c1.2-5.7-7.5-8.1-8.7-2.4c-3.2,15.8-12.7,28.8-25,38.9c-12.2,10.1-28.9,20.1-45.2,19.2
					c-16-0.9-30.3-11.7-38.9-24.7c-10-15.2-13.9-33.2-16.6-50.9C778.1,288.1,769.4,290.5,770.3,296.2L770.3,296.2z"/>
			</g>
		</g>
		<g>
			<g>
				<path class="st15" d="M920.1,229.1c4.1-5.3,11.4-5.8,16.8-2c6.1,4.3,8.7,12.3,9.2,19.4c1,15.5-8.5,29.8-24.3,32
					c-5.7,0.8-3.3,9.5,2.4,8.7c22.2-3,34-26,30.2-46.7c-1.7-9.3-7-18.7-15.9-22.8c-8.2-3.8-19-2.3-24.7,5.1
					C910.3,227.3,916.6,233.7,920.1,229.1L920.1,229.1z"/>
			</g>
		</g>
		<g>
			<g>
				<path class="st15" d="M939.1,286.5c0-0.3,0-0.7,0-1c0-1.2-0.5-2.4-1.3-3.2c-0.8-0.8-2.1-1.4-3.2-1.3c-1.2,0.1-2.4,0.4-3.2,1.3
					c-0.8,0.9-1.3,2-1.3,3.2c0,0.3,0,0.7,0,1c0,1.2,0.5,2.4,1.3,3.2c0.8,0.8,2.1,1.4,3.2,1.3c1.2-0.1,2.4-0.4,3.2-1.3
					C938.6,288.8,939.1,287.7,939.1,286.5L939.1,286.5z"/>
			</g>
		</g>
		<g>
			<g>
				<path class="st15" d="M939.1,285.2c-0.5-1.2-1-2.5-1.4-3.7c-2-5.3-10.3-3.3-8.7,2.4c5.7,19.7,15.7,37.7,29.3,53.1
					c3.8,4.3,10.2-2,6.4-6.4c-12.6-14.2-21.7-30.9-27-49.1c-2.9,0.8-5.8,1.6-8.7,2.4c0.5,1.2,1,2.5,1.4,3.7
					C932.5,293,941.2,290.6,939.1,285.2L939.1,285.2z"/>
			</g>
		</g>
		<g>
			<g>
				<path class="st15" d="M975.3,344.2c40-1.6,69.1,30.1,86.5,62.6c18.7,35.1,29.9,75.5,25.1,115.4c-2.6,21.3-9.8,41.9-21.7,59.8
					c-3.2,4.8,4.6,9.3,7.8,4.5c23.1-34.6,28.3-77.7,20.7-117.9c-4.1-21.5-11.8-42.3-21.7-61.8c-9-17.7-20.2-34.8-35.3-48
					c-16.9-14.8-38.6-24.5-61.3-23.6C969.5,335.5,969.5,344.5,975.3,344.2L975.3,344.2z"/>
			</g>
		</g>
		<g>
			<g>
				<path class="st15" d="M960.7,345.9c-4.1,13.8-16.5,23.1-29.4,28.1c-13.9,5.3-33.9,7.7-41.7-8.3c-2.5-5.2-10.3-0.6-7.8,4.5
					c9.3,19.1,33.1,19.2,50.5,12.9c16.5-6,31.9-17.4,37.1-34.8C971,342.7,962.3,340.4,960.7,345.9L960.7,345.9z"/>
			</g>
		</g>
		<g>
			<g>
				<path class="st15" d="M793.9,412.8c-18.1,50.4-22.5,104.1-26.7,157.1c-0.5,5.8,8.5,5.7,9,0c4.1-52.2,8.6-105,26.4-154.7
					C804.5,409.7,795.8,407.4,793.9,412.8L793.9,412.8z"/>
			</g>
		</g>
		<g>
			<g>
				<path class="st15" d="M1064.2,598.6c2.7,14.3-8.4,26.7-20.3,32.8c-13.6,6.9-29.9,8.6-44.8,10.8c-32.4,4.9-65.9,7.3-98-0.8
					c-16.4-4.2-31.9-11-45.6-20.9c-4.7-3.4-9.2,4.4-4.5,7.8c27.5,20,61.9,27.4,95.4,27.5c19.1,0.1,38.1-2.2,57-5.1
					c16.5-2.6,34.2-4.7,48.7-13.5c14.1-8.5,23.9-24.1,20.8-40.9C1071.8,590.5,1063.1,592.9,1064.2,598.6L1064.2,598.6z"/>
			</g>
		</g>
		<g>
			<g>
				<path class="st15" d="M1039.4,564.4c-26.9-11.3-56.9-6.4-84.3,0.5c-29.4,7.4-57.8,18.3-84.7,32.1c-5.2,2.6-0.6,10.4,4.5,7.8
					c25.7-13.1,52.8-23.5,80.8-30.7c26.5-6.8,55.2-11.9,81.3-1C1042.3,575.3,1044.7,566.6,1039.4,564.4L1039.4,564.4z"/>
			</g>
		</g>
		<g>
			<g>
				<path class="st15" d="M984.6,426.5c-9.4,44.8-7.9,91.4,4.5,135.4c1.6,5.6,10.3,3.2,8.7-2.4c-12-42.5-13.6-87.4-4.5-130.6
					C994.4,423.2,985.8,420.8,984.6,426.5L984.6,426.5z"/>
			</g>
		</g>
		<g>
			<g>
				<path class="st15" d="M834,424c-32.5,48.3-34.9,113.9-6.4,164.6c2.8,5,10.6,0.5,7.8-4.5c-27-48-24.3-109.9,6.4-155.5
					C845,423.8,837.2,419.2,834,424L834,424z"/>
			</g>
		</g>
		<g>
			<g>
				<path class="st15" d="M883.5,188.1c2,16.1,8.8,30.8,20.1,42.5c4,4.2,10.4-2.2,6.4-6.4c-9.5-9.9-15.7-22.5-17.4-36.2
					C891.8,182.5,882.8,182.4,883.5,188.1L883.5,188.1z"/>
			</g>
		</g>
		<g>
			<g>
				<path class="st15" d="M903.2,224c-13.8-4.9-26.2-12.9-36.4-23.4c-4.1-4.1-10.4,2.2-6.4,6.4c11.4,11.6,25.1,20.3,40.4,25.7
					C906.3,234.6,908.6,225.9,903.2,224L903.2,224z"/>
			</g>
		</g>
		<g>
			<g>
				<path class="st15" d="M853.5,186.1c1.1,19.6,7.6,38.3,19.1,54.2c3.4,4.6,11.2,0.2,7.8-4.5c-10.6-14.6-16.9-31.6-17.9-49.7
					C862.1,180.3,853.1,180.3,853.5,186.1L853.5,186.1z"/>
			</g>
		</g>
		<g>
			<g>
				<path class="st15" d="M872.8,232.2c-12.2,5.1-24.5,10.1-37.3,13.2c-6.4,1.5-12.9,2.5-19.5,2.6c-5.2,0.1-13.1,0.3-16.5-4.5
					c-3.3-4.7-11.2-0.2-7.8,4.5c8.1,11.4,25.1,9.6,37.2,7.8c16.1-2.4,31.3-8.7,46.3-14.9C880.4,238.6,878.1,229.9,872.8,232.2
					L872.8,232.2z"/>
			</g>
		</g>
		<g>
			<g>
				<path class="st15" d="M797.5,241.2c-7.6-14.4-12.6-29.8-15.1-45.9c-0.9-5.7-9.5-3.3-8.7,2.4c2.5,16.9,8,33,16,48.1
					C792.4,250.9,800.2,246.3,797.5,241.2L797.5,241.2z"/>
			</g>
		</g>
		<g>
			<g>
				<path class="st15" d="M770.5,198.6c-6.8,19.4-6.8,40.7,0,60c1.9,5.4,10.6,3.1,8.7-2.4c-6.4-18.1-6.4-37.2,0-55.3
					C781.2,195.5,772.5,193.2,770.5,198.6L770.5,198.6z"/>
			</g>
		</g>
		<g>
			<g>
				<path class="st15" d="M770,252.9c-10.1,4.3-20.1,8.6-30.2,12.9c-5.3,2.3-0.7,10,4.5,7.8c10.1-4.3,20.1-8.6,30.2-12.9
					C779.9,258.4,775.3,250.6,770,252.9L770,252.9z"/>
			</g>
		</g>
		<g>
			<g>
				<path class="st15" d="M747.5,263.1c-7.9-17.2-12.2-36.6-11.2-55.6c0.5-9.4,3.3-17.6,10.2-24.3c5.9-5.8,14.4-13.8,22.9-14.8
					c5.7-0.7,5.8-9.7,0-9c-10.6,1.2-19.1,8.4-26.9,15.2c-8,7.1-13,15.8-14.6,26.4c-3.2,22.4,2.5,46.3,11.8,66.6
					C742.1,272.9,749.9,268.4,747.5,263.1L747.5,263.1z"/>
			</g>
		</g>
		<g>
			<g>
				<path class="st15" d="M783.2,158c25.4-37.1,76.4-48.5,115-25.2c10,6,18.5,14.1,26.5,22.6c8.3,8.7,16.8,17.7,23.3,27.8
					c6.5,10.1,9.9,21.5,13.6,32.8c3.5,10.9,7.7,21.5,13.6,31.3c11.3,18.7,31.2,42.1,55.8,36.4c5.6-1.3,3.3-10-2.4-8.7
					c-11.8,2.8-22.8-4.7-30.7-12.8c-8.1-8.3-14.8-18.1-19.9-28.6c-5.5-11.2-8.4-23.3-12.7-34.9c-4.1-11.2-9.7-21.2-17.2-30.5
					c-14.4-17.8-31.1-36.5-51.9-46.8c-19.8-9.8-42.8-12.6-64.3-7.4c-23,5.5-43.1,19.9-56.5,39.4C772.1,158.3,779.9,162.8,783.2,158
					L783.2,158z"/>
			</g>
		</g>
		<g>
			<g>
				<path class="st15" d="M1024.5,286.3c-1,6-10.9,9.8-15.9,11.2c-7.7,2.2-15.8,2.1-23.8,2.1c-5.8,0-5.8,9,0,9
					c10.2,0,20.9-0.1,30.5-3.9c6.8-2.7,16.5-8.1,17.8-16C1034.1,283,1025.4,280.6,1024.5,286.3L1024.5,286.3z"/>
			</g>
		</g>
		<g>
			<g>
				<path class="st15" d="M972.5,300.1c2.9,8.8,8.2,15.8,15.8,21c-0.5-2.1-1.1-4.1-1.6-6.2c-4.3,6.8-11.6,10.4-19.6,10
					c-5.8-0.3-5.8,8.7,0,9c11.2,0.5,21.4-5.1,27.4-14.5c1.4-2.2,0.3-4.8-1.6-6.2c-5.6-3.8-9.6-9.2-11.7-15.6
					C979.3,292.2,970.6,294.6,972.5,300.1L972.5,300.1z"/>
			</g>
		</g>
		<g>
			<g>
				<path class="st15" d="M831.8,301.5c-7.8,2.7-15.8,5.1-23.8,7.2c-5.6,1.5-3.2,10.1,2.4,8.7c8-2.1,15.9-4.5,23.8-7.2
					C839.6,308.3,837.3,299.6,831.8,301.5L831.8,301.5z"/>
			</g>
		</g>
		<g>
			<g>
				<path class="st15" d="M863.4,324.1c0.2,0.1,0.5,0.2,0.7,0.3c-0.9-0.7-1.8-1.4-2.7-2.1c-0.9-2-3.3,1.8-4.3,2.8
					c-1.5,1.4-3.1,2.8-4.8,4c-3.7,2.7-7.7,5-12,6.6c-8.2,3.2-17.3,4.5-26.1,3.3c-5.7-0.8-8.1,7.9-2.4,8.7
					c13.6,1.9,27.3-0.5,39.4-7.2c5.2-2.9,29-19.9,14.6-25.1C860.4,313.4,858,322.1,863.4,324.1L863.4,324.1z"/>
			</g>
		</g>
		<g>
			<g>
				<path class="st15" d="M846.6,270.6c0,0.1,0,0.1-0.1,0.2c0.2-0.4,0.3-0.7,0.5-1.1c0,0.1-0.1,0.1-0.1,0.2c0.2-0.3,0.5-0.6,0.7-0.9
					c0,0.1-0.1,0.1-0.2,0.2c0.3-0.2,0.6-0.5,0.9-0.7c-0.1,0.1-0.2,0.1-0.3,0.2c0.4-0.2,0.7-0.3,1.1-0.5c-0.1,0-0.1,0-0.2,0.1
					c0.4-0.1,0.8-0.1,1.2-0.2c-0.1,0-0.2,0-0.3,0c0.4,0.1,0.8,0.1,1.2,0.2c-0.1,0-0.1,0-0.2-0.1c0.4,0.2,0.7,0.3,1.1,0.5
					c0,0-0.1,0-0.1-0.1c0.3,0.2,0.6,0.5,0.9,0.7c-0.1,0-0.1-0.1-0.2-0.1c0.2,0.3,0.5,0.6,0.7,0.9c0-0.1-0.1-0.1-0.1-0.2
					c0.2,0.4,0.3,0.7,0.5,1.1c0-0.1,0-0.1-0.1-0.2c0.1,0.4,0.1,0.8,0.2,1.2c0-0.1,0-0.2,0-0.3c-0.1,0.4-0.1,0.8-0.2,1.2
					c0-0.1,0-0.1,0.1-0.2c-0.2,0.4-0.3,0.7-0.5,1.1c0-0.1,0.1-0.2,0.2-0.3c-0.2,0.3-0.5,0.6-0.7,0.9c0-0.1,0.1-0.1,0.1-0.1
					c-0.3,0.2-0.6,0.5-0.9,0.7c0.1,0,0.1-0.1,0.2-0.1c-0.4,0.2-0.7,0.3-1.1,0.5c0.1,0,0.1,0,0.2-0.1c1.1-0.2,2.2-1.2,2.7-2.1
					c0.6-1,0.8-2.4,0.5-3.5c-0.4-1.1-1-2.1-2.1-2.7c-1.1-0.6-2.2-0.7-3.5-0.5c-1.8,0.4-3.3,2-3.8,3.7c-0.6,1.8-0.1,3.9,1.3,5.3
					c1.4,1.4,3.4,1.9,5.3,1.4c1.7-0.5,3.5-2,3.8-3.9c0.2-1.2,0.2-2.4-0.5-3.5c-0.5-0.9-1.6-1.8-2.7-2.1c-1.2-0.3-2.4-0.2-3.5,0.5
					C847.7,268.6,846.7,269.5,846.6,270.6L846.6,270.6z"/>
			</g>
		</g>
		<g>
			<g>
				<path class="st15" d="M788.6,292.9c0.3,0.7,0.7,1.4,1,2.1c0.5,1,1.7,1.8,2.7,2.1c1.1,0.3,2.5,0.2,3.5-0.5c1-0.6,1.8-1.5,2.1-2.7
					c0.3-1.2,0.1-2.3-0.5-3.5c-0.3-0.7-0.7-1.4-1-2.1c-0.5-1-1.7-1.8-2.7-2.1c-1.1-0.3-2.5-0.2-3.5,0.5c-1,0.6-1.8,1.5-2.1,2.7
					C787.8,290.6,788,291.8,788.6,292.9L788.6,292.9z"/>
			</g>
		</g>
		<g>
			<g>
				<path class="st15" d="M851.5,271.7c-0.1-0.2,0.2-2.8,0.3-2.9c0.7-0.7,2,0.5,2.3,0.5c0.2,0.4,0.2,0.4,0.1,0
					c-0.1-0.3-0.1-0.3,0-0.2c0.1-0.1-0.1,0.2,0,0.1c-0.5,0.5-1.1,1.1-1.6,1.6c0,0-1.4,0.2-1.4,0.2c-0.4-0.1-0.5-0.3-0.4-0.4
					c0.1-0.1,0.1-0.2,0-0.3c-0.8-0.6,0.7,0.2-0.5,0c0.2,0-1.5,0.3-1.1,0c0,0-0.1-0.1-0.2-0.1c-0.3,0.2,0.6-0.3-0.1,0.4
					c-0.1,0.1,0,0.7-0.1,0.7c0,0,0.6-0.3,0.7-0.4c0.6-0.1,1.5,0,2-0.2c0,0,0.3,0.1,0.2,0.1c0.2-0.1,0.2-1.2,0.7-1.5
					c0.5-0.3,1.5-0.3,1.9,0.2c-4-4.2-10.4,2.2-6.4,6.4c2.9,3,7.8,2.8,10.7-0.2c3-3.2,2.4-8.3-0.6-11.2c-6.1-6.2-20.7-1.3-17.8,8.4
					c2.6,8.8,16.4,8.3,19-0.3c1.2-4.2-1.1-8.7-5.2-10.2c-1.9-0.7-4.1-0.6-5.9,0.4c-2.1,1.2-2.9,3.6-3,5.9c-0.2,4.6,3.1,9,8,8.7
					c5.3-0.3,8.3-5.8,6.1-10.4c-1-2.2-4.2-2.8-6.2-1.6C850.8,266.9,850.5,269.5,851.5,271.7L851.5,271.7z"/>
			</g>
		</g>
		<g>
			<g>
				<path class="st15" d="M792.7,295.8c-0.8,0.1-1.7,0.2-2.5,0.3c-0.2-0.1-0.4-0.2-0.6-0.3c-0.5-0.3-0.7-0.7-1-1.1
					c-0.1-0.3-0.1-0.4-0.1-0.2c0.1,0.2,0.1,0.2,0-0.2c0.2-0.9,0.5-2.6,1.4-3.1c1.5,0,3,0,4.5,0c1,0.7-0.1-0.4,0.6,0.6
					c-0.5-0.7,0.2,0.9,0,0c0.1,0.5-0.1,0.8,0.1,0.2c0.1-0.4-0.2,1.1,0,0c0.2-1,0,0.2-0.1,0.1c-0.1-0.1,1-1.3-0.1,0
					c0.5-0.6-0.8,0.4,0,0c-0.2,0.1-0.4,0.1-0.6,0.2c0.5-0.1,0.4-0.1-0.3,0c-1.4-1.1-2.9-2.2-4.3-3.3c0.3,0.7,0.6,1.9,0.7,2.3
					c-0.1-0.5,0.2-0.3-0.1,0.1c0.3-0.5,0.2-0.8,0.7-1.1c1.2-0.8,3.5,0.4,3.5,1.8c0,0.2,0,0.4-0.1,0.6c-0.1,0.3-0.1,0.3,0.1-0.1
					c-0.1,0.1-0.2,0.2-0.2,0.3c0.3-0.3,0.4-0.3,0.1-0.1c-0.3,0.1-0.9,0.3-0.2,0.2c-0.4,0-0.7,0.1-1.1,0c-0.3-0.1-0.7-0.6-0.3-0.1
					c-0.3-0.4-0.3-0.5-0.2-0.2c0.2,0.3,0.1,0.2-0.1-0.3c0.1,0.7,0.1-0.1,0.1-0.4c0.1-0.4,0.1-0.3,0,0.1c0.2-0.4,0.4-0.7,0.5-1.1
					c0.3-0.4,0.7-0.4,1.1-0.5c0.2,0,0.3,0.1,0.5,0.1c-0.5-0.1-0.5-0.1,0.1,0c0.7,0.9,1.4,1.8,2.1,2.7c-0.4-1-0.8-1.9-1.2-2.9
					c-0.9-2.2-3-4-5.5-3.1c-2.1,0.7-4.1,3.2-3.1,5.5c0.6,1.6,1.2,3.7,2.4,4.9c1.1,1.1,3,1.8,4.6,1.8c3.1,0.1,6.5-1.8,7.4-5
					c1.6-5.9-3.8-11.7-9.8-10.1c-2.8,0.8-5.2,3.3-5.8,6.1c-0.7,3.4,0.9,7.2,4.4,8.2c3,0.9,6.5-0.7,8.1-3.3c1.7-2.8,1.2-6,0.2-8.9
					c-0.6-1.7-2.3-3.5-4.3-3.3c-3.7,0.3-6.6,2.7-7.6,6.3c-1,3.6,0.3,7.2,3.4,9.3c1.3,0.9,3.2,0.7,4.5,0c3-1.6,3.8-5.6,2.1-8.5
					c-1.7-3-5.2-4.2-8.3-2.5c-2.1,1.1-2.8,4.1-1.6,6.2C787.8,296.3,790.6,296.9,792.7,295.8L792.7,295.8z"/>
			</g>
		</g>
		<g>
			<g>
				<path class="st15" d="M797.5,260.8c-6.1-0.3-12.1,0.4-18.1,1.9c-5.6,1.4-3.2,10.1,2.4,8.7c5.2-1.3,10.3-1.8,15.7-1.5
					C803.3,270,803.3,261,797.5,260.8L797.5,260.8z"/>
			</g>
		</g>
		<g>
			<g>
				<path class="st15" d="M843.6,619.2c-7.9,6.3-18,8.6-27.9,9c-10,0.4-20.2-2.2-30.1-1.1c-10.5,1.2-16.6,10-25.5,14.8
					c-2.3,1.3-4.7,2.4-7.1,3.2c-2.7,1-3.9,1.7-4.3-1.4c-0.5-3.6-0.3-9.3,3.1-11.3c5-2.9,0.5-10.7-4.5-7.8c-4.7,2.8-6.8,7.4-7.4,12.7
					c-0.6,4.8-0.9,11.5,2.9,15.1c4.3,4.2,10.7,2.2,15.5,0.2c6.1-2.5,11.7-6,16.8-10.2c2.9-2.4,5.5-5.1,9.2-6.1
					c3.2-0.9,6.7-0.5,10-0.3c6.9,0.6,13.7,1.3,20.7,1.1c12.8-0.5,24.9-3.6,35-11.7C854.5,621.9,848.1,615.6,843.6,619.2L843.6,619.2
					z"/>
			</g>
		</g>
		<g>
			<g>
				<path class="st15" d="M839.3,645.1c9.8,3.2,19.6,6.5,29.4,9.7c0-2.9,0-5.8,0-8.7C812,667,753,681.8,693,689.6
					c-5.7,0.7-5.7,9.8,0,9c60.8-8,120.6-22.6,178.2-43.8c4.1-1.5,4.4-7.2,0-8.7c-9.8-3.2-19.6-6.5-29.4-9.7
					C836.2,634.6,833.9,643.2,839.3,645.1L839.3,645.1z"/>
			</g>
		</g>
		<g>
			<g>
				<path class="st15" d="M393.1,407.1c-4.9-0.3-9.8-0.5-14.7-0.6c-4.1-0.1-9-0.8-13,0.5c-5.5,1.8-9.2,6.8-10.6,12.2
					c-1.7,6.9,0.5,12.4,3,18.8c3.6,9,7.1,18,10.7,27.1c13.6,34.7,26.9,69.6,38.3,105.1c5.7,17.9,11,36,15.6,54.2
					c2.1,8.2,3,17.5,7.8,24.6c3.6,5.3,8.7,9,14.6,11.4c6.8,2.8,13.6,3.8,20.9,4c9.4,0.2,18.8,0.8,28.2,1.6
					c9.7,0.8,19.6,1.3,29.1,3.2c9.3,1.8,18.6,4,27.8,6.2c41.5,9.8,82.8,21.1,125.5,24.5c5.8,0.5,5.7-8.5,0-9
					c-35.2-2.8-69.5-11.2-103.7-19.5c-17-4.1-34.2-9.2-51.5-11.7c-16.9-2.5-34.5-3.6-51.6-4.1c-12.9-0.4-29.2-1.9-34.1-16.3
					c-2.8-8.2-4.2-17.1-6.4-25.5c-2.2-8.5-4.6-17-7.1-25.4c-9.8-33.1-21.5-65.6-33.9-97.8c-6.9-18.1-14-36.1-21.1-54.1
					c-2.3-5.8-6.2-13-1.5-18.8c2.7-3.4,8.3-2.2,12.1-2.2c5.2,0.1,10.4,0.2,15.7,0.6C398.9,416.4,398.8,407.4,393.1,407.1
					L393.1,407.1z"/>
			</g>
		</g>
		<g>
			<g>
				<path class="st15" d="M652.2,605.5c-20.2-44.1-33.1-90.9-45.6-137.6c-2.7-10.1-4.3-20.6-11.9-28.3c-6-6.1-14-9.7-22-12.4
					c-21.4-7.2-44-11.4-66.3-14.3c-28.7-3.7-57.6-4.6-86.4-4.8c-5.8,0-5.8,9,0,9c48.2,0.4,96.3,3.2,143,16.5
					c7.8,2.2,16.1,4.7,22.6,9.8c8.5,6.6,9.8,17.1,12.4,26.9c6,22.4,12,44.8,18.9,66.9c7.8,24.8,16.7,49.2,27.6,72.8
					C646.8,615.3,654.6,610.8,652.2,605.5L652.2,605.5z"/>
			</g>
		</g>
		<g>
			<g>
				<path class="st15" d="M660,621.4c-1.2-2.5-2.5-4.9-3.7-7.4c-1.1-2.2-4.2-2.8-6.2-1.6c-2.2,1.3-2.7,4-1.6,6.2
					c1.2,2.5,2.5,4.9,3.7,7.4c1.1,2.2,4.2,2.8,6.2,1.6C660.6,626.3,661.1,623.6,660,621.4L660,621.4z"/>
			</g>
		</g>
		<g>
			<g>
				<path class="st15" d="M682.7,700.9c10.5-3.7,4.3-19.4,1.7-26.5c-3.6-9.8-8.1-19.1-12.6-28.6c-2.5-5.2-10.2-0.7-7.8,4.5
					c3.4,7.1,6.9,14.2,9.8,21.6c1.8,4.6,3.6,9.2,4.7,14c0.4,1.8,0.8,3.6,0.9,5.5c0,1.8-0.6,1.2,0.8,0.7
					C674.9,694.1,677.3,702.8,682.7,700.9L682.7,700.9z"/>
			</g>
		</g>
		<g>
			<g>
				<path class="st15" d="M779,568.8c-6.4-2.1-13.1-2.6-19.8-1.7c-2.4,0.3-4.5,1.8-4.5,4.5c0,2.2,2.1,4.8,4.5,4.5
					c6-0.8,11.6-0.5,17.4,1.4C782.1,579.3,784.5,570.6,779,568.8L779,568.8z"/>
			</g>
		</g>
		<g>
			<g>
				<path class="st15" d="M765.2,568.5c-22.9,2.5-45.7,6.2-68.2,11.2c-5.7,1.3-3.3,9.9,2.4,8.7c21.7-4.8,43.7-8.5,65.8-10.9
					C770.9,576.9,770.9,567.9,765.2,568.5L765.2,568.5z"/>
			</g>
		</g>
		<g>
			<g>
				<path class="st15" d="M689.8,584.4c-12.8-1.1-25.6,0.3-37.9,3.8c-5.6,1.6-3.2,10.3,2.4,8.7c11.6-3.4,23.4-4.5,35.5-3.5
					C695.6,593.9,695.6,584.9,689.8,584.4L689.8,584.4z"/>
			</g>
		</g>
		<g>
			<g>
				<path class="st15" d="M691,596.3c5.1,3.1,8,8.3,12,12.6c4.2,4.5,9.3,7.2,15.3,8.6c13.4,3.3,26.4-0.9,38.4-6.9
					c12.4-6.2,23.6-13.2,37.7-14.8c14.1-1.6,28.4,1.2,40.9,8.1c5.1,2.8,9.6-5,4.5-7.8c-24.1-13.3-52.4-12.4-76.3,0.7
					c-11.7,6.4-24.3,14-38.2,12.8c-7.3-0.6-12.9-3.5-17.6-9.1c-3.7-4.5-7-8.9-12-12C690.6,585.5,686,593.3,691,596.3L691,596.3z"/>
			</g>
		</g>
		<g>
			<g>
				<path class="st15" d="M696.7,615.4c-9.1,7.6-20.2,12.2-32,13.4c-5.7,0.6-5.8,9.6,0,9c14.3-1.4,27.3-6.8,38.4-16
					C707.6,618,701.2,611.7,696.7,615.4L696.7,615.4z"/>
			</g>
		</g>
		<g>
			<g>
				<path class="st15" d="M852.2,622.4c2.5,3.5,7.2,4.4,10.2,0.8c2.9-3.6,2.9-10.1,2.5-14.4c-0.9-10.2-8.6-18.8-19.3-16.9
					c-5.7,1-3.3,9.7,2.4,8.7c4.1-0.7,7,3.4,7.7,6.9c0.4,1.8,0.4,3.7,0.3,5.5c-0.1,1.3-0.2,2.6-0.5,3.9c-0.7,1.8,0.1,1.7,2.4-0.3
					c0.9,0.7,1.8,1.4,2.7,2.1c-0.2-0.2-0.4-0.5-0.5-0.7C856.6,613.2,848.8,617.7,852.2,622.4L852.2,622.4z"/>
			</g>
		</g>
		<g>
			<g>
				<path class="st15" d="M834.5,259.6c2.3-1.9,4.6-3.8,6.9-5.7c1.8-1.5,1.7-4.8,0-6.4c-1.9-1.8-4.4-1.6-6.4,0
					c-2.3,1.9-4.6,3.8-6.9,5.7c-1.8,1.5-1.7,4.8,0,6.4C830,261.4,832.5,261.2,834.5,259.6L834.5,259.6z"/>
			</g>
		</g>
		<g>
			<g>
				<path class="st15" d="M758.3,262.7c2.7,11.5,6.7,22.5,11.6,33.3c2.4,5.3,10.2,0.7,7.8-4.5c-4.6-10-8.2-20.4-10.7-31.1
					C765.7,254.7,757,257,758.3,262.7L758.3,262.7z"/>
			</g>
		</g>
		<g>
			<g>
				<path class="st15" d="M826.1,383.6c3.6-2.5,7.1-5.1,10.6-7.8c1.9-1.5,1.6-4.8,0-6.4c-1.9-1.9-4.4-1.5-6.4,0
					c-2.8,2.2-5.8,4.3-8.7,6.4c-2,1.4-2.9,4-1.6,6.2C821.1,384,824.1,385,826.1,383.6L826.1,383.6z"/>
			</g>
		</g>
	</g>
</g>
</svg>
